<svg width="24" height="24" viewBox="0 0 24 24" fill="none" xmlns="http://www.w3.org/2000/svg">
<circle cx="12" cy="12" r="11" fill="#285780" stroke="white" stroke-width="2"/>
<path d="M12 10.3125C11.4406 10.3125 10.904 10.5347 10.5084 10.9303C10.1129 11.3259 9.89062 11.8624 9.89062 12.4219C9.89062 12.9813 10.1129 13.5178 10.5084 13.9134C10.904 14.309 11.4406 14.5312 12 14.5312C12.5594 14.5312 13.096 14.309 13.4916 13.9134C13.8871 13.5178 14.1094 12.9813 14.1094 12.4219C14.1094 11.8624 13.8871 11.3259 13.4916 10.9303C13.096 10.5347 12.5594 10.3125 12 10.3125Z" fill="white"/>
<path fill-rule="evenodd" clip-rule="evenodd" d="M10.506 6.97759C11.5013 6.92414 12.4987 6.92414 13.494 6.97759C14.0379 7.00684 14.5234 7.30666 14.8058 7.75947L15.2676 8.50028C15.4026 8.71572 15.6304 8.86197 15.8919 8.89966C16.1091 8.93003 16.3251 8.96322 16.5399 8.99922C17.3454 9.13366 17.9062 9.83903 17.9062 10.6355V15.3752C17.9062 15.8227 17.7285 16.2519 17.412 16.5684C17.0955 16.8849 16.6663 17.0627 16.2188 17.0627H7.78125C7.3337 17.0627 6.90447 16.8849 6.58801 16.5684C6.27154 16.2519 6.09375 15.8227 6.09375 15.3752V10.6355C6.09375 9.83903 6.65456 9.13366 7.46006 8.99922C7.67494 8.96322 7.89094 8.93003 8.1075 8.89909C8.23441 8.88211 8.35606 8.83756 8.46392 8.76856C8.57178 8.69957 8.66324 8.60781 8.73187 8.49972L9.19425 7.76003C9.33403 7.53394 9.52622 7.34484 9.75455 7.20874C9.98288 7.07264 10.2406 6.99299 10.506 6.97759ZM9.04688 12.422C9.04688 11.6388 9.35801 10.8877 9.91183 10.3339C10.4656 9.78004 11.2168 9.46891 12 9.46891C12.7832 9.46891 13.5344 9.78004 14.0882 10.3339C14.642 10.8877 14.9531 11.6388 14.9531 12.422C14.9531 13.2052 14.642 13.9564 14.0882 14.5102C13.5344 15.064 12.7832 15.3752 12 15.3752C11.2168 15.3752 10.4656 15.064 9.91183 14.5102C9.35801 13.9564 9.04688 13.2052 9.04688 12.422ZM15.7969 11.5783C15.9088 11.5783 16.0161 11.5338 16.0952 11.4547C16.1743 11.3756 16.2188 11.2683 16.2188 11.1564C16.2188 11.0445 16.1743 10.9372 16.0952 10.8581C16.0161 10.779 15.9088 10.7345 15.7969 10.7345C15.685 10.7345 15.5777 10.779 15.4986 10.8581C15.4194 10.9372 15.375 11.0445 15.375 11.1564C15.375 11.2683 15.4194 11.3756 15.4986 11.4547C15.5777 11.5338 15.685 11.5783 15.7969 11.5783Z" fill="white"/>
</svg>
