<svg width="16" height="16" viewBox="0 0 16 16" fill="none" xmlns="http://www.w3.org/2000/svg">
<path d="M14.4875 1.51246C14.1593 1.18433 13.7142 1 13.2502 1C12.7861 1 12.341 1.18433 12.0128 1.51246L11.2415 2.28379L13.7162 4.75846L14.4875 3.98713C14.8156 3.65895 15 3.21387 15 2.74979C15 2.28571 14.8156 1.84064 14.4875 1.51246ZM13.0088 5.46579L10.5342 2.99113L2.43417 11.0911C2.02274 11.5024 1.72029 12.0096 1.55417 12.5671L1.02084 14.3571C0.995087 14.4435 0.993167 14.5352 1.01528 14.6226C1.03739 14.71 1.08271 14.7898 1.14645 14.8535C1.21018 14.9173 1.28996 14.9626 1.37734 14.9847C1.46472 15.0068 1.55646 15.0049 1.64284 14.9791L3.43284 14.4458C3.99032 14.2797 4.49761 13.9772 4.90884 13.5658L13.0088 5.46579Z" fill="#137AC9"/>
</svg>
