<svg width="24" height="24" viewBox="0 0 24 24" fill="none" xmlns="http://www.w3.org/2000/svg">
<path d="M3.97959 8.223C3.04405 9.32718 2.34741 10.6132 1.93359 12C3.22559 16.338 7.24359 19.5 11.9996 19.5C12.9926 19.5 13.9526 19.362 14.8626 19.105M6.22759 6.228C7.94024 5.09786 9.94768 4.49688 11.9996 4.5C16.7556 4.5 20.7726 7.662 22.0646 11.998C21.3566 14.3673 19.8366 16.4116 17.7716 17.772M6.22759 6.228L2.99959 3M6.22759 6.228L9.87759 9.878M17.7716 17.772L20.9996 21M17.7716 17.772L14.1216 14.122C14.4002 13.8434 14.6212 13.5127 14.772 13.1486C14.9227 12.7846 15.0003 12.3945 15.0003 12.0005C15.0003 11.6065 14.9227 11.2164 14.772 10.8524C14.6212 10.4883 14.4002 10.1576 14.1216 9.879C13.843 9.6004 13.5122 9.3794 13.1482 9.22863C12.7842 9.07785 12.3941 9.00025 12.0001 9.00025C11.6061 9.00025 11.216 9.07785 10.8519 9.22863C10.4879 9.3794 10.1572 9.6004 9.87859 9.879M14.1206 14.121L9.87959 9.88" stroke="black" stroke-opacity="0.6" stroke-width="1.5" stroke-linecap="round" stroke-linejoin="round"/>
</svg>
