<svg width="84" height="84" viewBox="0 0 84 84" fill="none" xmlns="http://www.w3.org/2000/svg">
<g clip-path="url(#clip0_244_18825)">
<path d="M39.3752 84C37.8002 83.7813 36.2252 83.6281 34.6721 83.3438C22.9033 81.1563 13.6502 75.0313 6.97831 65.1438C2.31894 58.2313 0.0658139 50.5313 0.000188919 42.1969C-0.0216861 40.0094 1.85956 38.5656 3.85019 39.2219C5.07519 39.6375 5.86269 40.7094 5.86269 42.1969C5.88456 45.7188 6.34394 49.1969 7.41581 52.5219C11.1783 64.0281 18.6814 72.0563 30.0783 76.0813C45.1283 81.375 61.1627 76.4531 70.8095 63.7438C76.7596 55.9125 79.0783 47.0094 77.7658 37.275C75.7752 22.4875 65.3189 10.6094 50.9471 7.04377C38.6096 3.98127 27.5189 6.80314 17.8721 15.0938C17.7408 15.2031 17.5439 15.2688 17.3908 15.3563C17.4346 15.4438 17.5002 15.5313 17.5439 15.6188C18.4408 15.6188 19.3158 15.6188 20.2127 15.6188C22.1158 15.6406 23.4502 16.8875 23.4283 18.5938C23.4064 20.2781 22.0939 21.4813 20.2127 21.4813C17.1283 21.4813 14.0439 21.4813 10.9377 21.4813C9.01269 21.4813 7.80956 20.3219 7.80956 18.375C7.78769 15.225 7.78769 12.0969 7.80956 8.94689C7.83144 7.10939 9.03456 5.88439 10.7408 5.88439C12.4471 5.88439 13.6283 7.13126 13.6502 8.96877C13.6502 9.55939 13.6502 10.1719 13.6502 10.9594C13.9564 10.7188 14.1533 10.5875 14.3283 10.4125C20.6721 4.87814 28.0221 1.44376 36.3783 0.393761C48.0814 -1.09373 58.6908 1.75002 67.9658 9.05627C76.4752 15.7719 81.5939 24.5656 83.4533 35.2406C83.6939 36.5969 83.8033 37.9969 83.9783 39.375C83.9783 41.125 83.9783 42.875 83.9783 44.625C83.9345 44.8438 83.8689 45.0406 83.847 45.2594C83.5189 49.7438 82.5564 54.075 80.7189 58.1656C74.572 71.9688 64.0939 80.4344 49.2408 83.3656C47.7096 83.65 46.1564 83.7813 44.6252 84C42.8752 84 41.1252 84 39.3752 84Z" fill="#137AC9"/>
<path d="M68.3814 41.322C68.6658 55.3658 58.122 66.9595 44.5158 68.2502C29.6845 69.6502 17.1064 58.6689 15.7502 44.5595C14.3283 29.6408 25.397 17.0845 39.4845 15.7501C54.4033 14.3283 67.8564 25.7251 68.3814 41.322ZM38.9814 21.7877C29.5095 22.8814 22.4658 31.3689 21.8314 39.0033C24.2158 39.2439 25.3533 40.1845 25.4189 41.9127C25.4845 43.6408 24.4564 44.5376 21.7877 45.0408C22.8595 53.7033 30.2533 61.1627 38.9814 62.2345C39.4408 59.6314 40.3158 58.5376 42.022 58.6251C42.6345 58.6689 43.3127 58.9314 43.8377 59.2814C44.8658 59.9814 45.0189 61.1189 44.9752 62.2564C54.4252 61.0095 61.3377 53.0252 62.2345 45.0189C59.7189 44.6252 58.647 43.8158 58.647 42.1314C58.647 41.5189 58.8877 40.8408 59.1939 40.2939C59.872 39.1783 61.0533 39.0033 62.2564 39.0251C60.9002 29.0501 52.3908 22.4877 44.997 21.7877C44.6908 24.2377 43.7502 25.3751 42.022 25.3751C40.2939 25.4189 39.3752 24.347 38.9814 21.7877Z" fill="black"/>
<path d="M37.0562 44.9312C35.525 44.9312 33.9937 44.9312 32.4625 44.9312C30.6031 44.9093 29.3125 43.7062 29.3125 41.9999C29.3125 40.2937 30.6031 39.0687 32.4625 39.0468C35 39.0249 37.5375 39.0687 40.075 39.0249C40.4906 39.0249 40.9719 38.8062 41.2563 38.5218C42.7219 37.1218 44.1219 35.678 45.5656 34.2562C46.9219 32.8999 48.7156 32.8343 49.9406 34.0812C51.1219 35.3062 51.0563 37.0562 49.7219 38.3905C47.8844 40.228 46.0469 42.0655 44.2312 43.903C43.5312 44.603 42.7219 44.9312 41.7375 44.9312C40.1844 44.9312 38.6094 44.9312 37.0562 44.9312Z" fill="#137AC9"/>
</g>
<defs>
<clipPath id="clip0_244_18825">
<rect width="84" height="84" fill="white" transform="matrix(0 -1 1 0 0 84)"/>
</clipPath>
</defs>
</svg>
