<svg width="110" height="68" viewBox="0 0 110 68" fill="none" xmlns="http://www.w3.org/2000/svg">
<g clip-path="url(#clip0_244_21031)">
<path d="M97.1152 59.9584C96.8201 60.2721 96.4599 60.5176 96.0599 60.6779C95.6599 60.8382 95.2296 60.9093 94.7992 60.8864C92.6317 60.8864 91.3066 59.1429 91.3066 57.003C91.3066 54.863 92.6317 53.1324 94.7992 53.1324C95.2286 53.1089 95.658 53.1787 96.0578 53.3368C96.4576 53.4949 96.8184 53.7377 97.1152 54.0483L96.2609 55.1981C96.0801 54.997 95.8584 54.8367 95.6106 54.728C95.3628 54.6193 95.0946 54.5647 94.8239 54.5677C93.6715 54.5677 92.8667 55.5939 92.8667 57.0037C92.8667 58.4136 93.6715 59.4525 94.8239 59.4525C95.0956 59.4548 95.3646 59.3986 95.6126 59.2878C95.8605 59.1769 96.0817 59.014 96.2609 58.8101L97.1152 59.9584Z" fill="black"/>
<path d="M100.59 58.3256C100.256 58.3257 99.926 58.2572 99.62 58.1243C99.314 57.9914 99.0387 57.797 98.8113 57.5531C98.5839 57.3093 98.4093 57.0213 98.2983 56.7071C98.1874 56.3929 98.1425 56.0592 98.1664 55.7269C98.1355 55.3907 98.1753 55.0516 98.283 54.7316C98.3908 54.4115 98.5642 54.1173 98.7922 53.8679C99.0202 53.6184 99.2978 53.4192 99.6072 53.2829C99.9167 53.1466 100.251 53.0762 100.589 53.0762C100.928 53.0762 101.262 53.1466 101.572 53.2829C101.881 53.4192 102.159 53.6184 102.387 53.8679C102.615 54.1173 102.788 54.4115 102.896 54.7316C103.004 55.0516 103.043 55.3907 103.013 55.7269C103.036 56.059 102.99 56.3922 102.879 56.706C102.768 57.0197 102.593 57.3073 102.366 57.551C102.139 57.7946 101.864 57.9891 101.558 58.1223C101.253 58.2556 100.923 58.3248 100.59 58.3256ZM101.604 55.7022C101.604 54.808 101.186 54.2121 100.59 54.2121C99.981 54.2121 99.5635 54.808 99.5635 55.7022C99.5635 56.6196 99.9817 57.1923 100.59 57.1923C101.187 57.1938 101.604 56.6211 101.604 55.7037V55.7022Z" fill="black"/>
<path d="M98.3965 59.3325V60.7139H102.8V59.3325H98.3965Z" fill="black"/>
<path d="M97.1611 68C94.9802 67.9999 92.8483 67.354 91.035 66.1442C89.2217 64.9344 87.8084 63.215 86.9739 61.2033C86.1394 59.1916 85.9212 56.978 86.3467 54.8425C86.7723 52.7069 87.8226 50.7453 89.3648 49.2057C90.907 47.6661 92.8718 46.6177 95.0109 46.1929C97.1499 45.7682 99.367 45.9863 101.382 46.8196C103.397 47.6528 105.119 49.0639 106.331 50.8744C107.542 52.6848 108.189 54.8133 108.189 56.9907C108.186 59.9097 107.023 62.7081 104.955 64.772C102.888 66.8359 100.085 67.9968 97.1611 68ZM97.1611 47.5472C95.2902 47.5472 93.4613 48.1011 91.9057 49.1389C90.3501 50.1766 89.1376 51.6516 88.4217 53.3773C87.7057 55.103 87.5184 57.002 87.8834 58.834C88.2484 60.666 89.1493 62.3488 90.4722 63.6696C91.7952 64.9904 93.4807 65.8898 95.3157 66.2542C97.1506 66.6187 99.0526 66.4316 100.781 65.7168C102.51 65.002 103.987 63.7915 105.026 62.2384C106.066 60.6853 106.621 58.8594 106.621 56.9915C106.618 54.4875 105.621 52.0868 103.847 50.3162C102.074 48.5457 99.6691 47.5498 97.1611 47.5472Z" fill="black"/>
<path d="M9.36778 36.0245C11.1831 36.0245 12.8813 34.8552 12.8813 31.8136V31.4043C12.8813 30.5266 13.1749 30.235 14.0525 30.235H17.506C18.3844 30.235 18.7357 30.9374 18.6772 31.7559C18.1516 38.7154 13.9331 41.404 9.36778 41.404C4.50588 41.404 -0.00390625 38.3638 -0.00390625 30.2935V11.1112C-0.00390625 3.04089 4.50663 0 9.36778 0C13.9369 0 18.1516 2.69011 18.6772 9.64961C18.7365 10.4689 18.3844 11.1704 17.506 11.1704H14.0525C13.1741 11.1704 12.8813 10.8774 12.8813 10.0011V9.58815C12.8813 6.54725 11.1824 5.37872 9.36778 5.37872C7.5532 5.37872 5.85349 6.54725 5.85349 9.58815V31.8136C5.85649 34.8545 7.5547 36.0245 9.36778 36.0245Z" fill="black"/>
<path d="M41.8788 11.1108V12.9846C41.8788 18.3064 40.3555 20.9965 38.306 22.5173L41.8203 39.9449C42.0545 40.8803 41.5868 41.1727 41.1176 41.1727H37.4276C36.6663 41.1727 36.315 41.1727 36.1393 40.295L33.1513 24.5635C33.1423 24.4818 33.1166 24.4028 33.0757 24.3314C33.0348 24.2601 32.9797 24.1978 32.9137 24.1486C32.8478 24.0994 32.7724 24.0643 32.6922 24.0454C32.6121 24.0265 32.5289 24.0243 32.4478 24.0389H31.3352C30.164 24.0389 30.164 24.0389 30.164 25.2082V39.9996C30.164 40.8773 29.8712 41.1697 28.9929 41.1697H25.4778C24.5994 41.1697 24.3066 40.8766 24.3066 39.9996V1.40269C24.3066 0.52572 24.6002 0.233398 25.4778 0.233398H33.0927C37.9539 0.233398 41.8788 3.03894 41.8788 11.1108ZM31.3352 5.38051C30.164 5.38051 30.164 5.38051 30.164 6.54904V17.7172C30.164 18.8865 30.164 18.8865 31.3352 18.8865H33.0935C34.9088 18.8865 36.0214 17.7172 36.0214 14.7348V9.58994C36.0214 6.54904 34.9073 5.38051 33.0935 5.38051H31.3352Z" fill="black"/>
<path d="M61.5599 0.233398H65.0749C65.9533 0.233398 66.2453 0.52647 66.2453 1.40269V30.2923C66.2453 38.3634 61.7355 41.4028 56.8736 41.4028C52.0117 41.4028 47.502 38.3634 47.502 30.2923V1.40269C47.502 0.52572 47.7955 0.233398 48.6731 0.233398H52.1882C53.0673 0.233398 53.3601 0.52647 53.3601 1.40269V31.8131C53.3601 34.854 55.0583 36.0241 56.8736 36.0241C58.689 36.0241 60.3887 34.8548 60.3887 31.8131V1.40269C60.3887 0.52647 60.6815 0.233398 61.5599 0.233398Z" fill="black"/>
<path d="M70.6955 31.8132C70.6955 30.8193 70.9304 30.5262 71.9252 30.5262H75.3231C76.0844 30.5262 76.4943 30.8193 76.4943 31.8717C76.4943 34.1525 77.6655 36.0241 80.0671 36.0241C82.4102 36.0241 83.4643 34.211 83.7 32.5762C84.8119 25.6182 71.9252 18.8926 71.3404 9.24296C71.1566 6.99955 71.8704 4.77481 73.3256 3.05559C74.7809 1.33637 76.859 0.262687 79.1052 0.0695097C81.3514 -0.123667 83.5828 0.579391 85.3111 2.02483C87.0394 3.47026 88.1238 5.54036 88.327 7.78211C88.4433 9.36064 88.327 9.65596 87.1558 9.65596H83.9335C83.0551 9.65596 82.7624 9.36289 82.7624 8.48668C82.7624 6.38046 81.5326 5.38807 79.9508 5.38807C77.2563 5.38807 76.9628 8.01896 77.0814 9.18825C77.7248 15.7378 88.2676 21.6449 89.3818 30.826C89.5509 32.1068 89.4529 33.4085 89.0939 34.6496C88.735 35.8907 88.1229 37.0443 87.2961 38.0379C86.4692 39.0315 85.4455 39.8437 84.2892 40.4234C83.133 41.0031 81.8691 41.3378 80.5771 41.4066C79.285 41.4753 77.9927 41.2765 76.7813 40.8227C75.5699 40.369 74.4655 39.67 73.5376 38.7697C72.6097 37.8694 71.8783 36.7873 71.3893 35.5913C70.9003 34.3954 70.6644 33.1113 70.6962 31.8199L70.6955 31.8132Z" fill="black"/>
<path d="M93.6001 0.233398H108.829C109.709 0.233398 110 0.52647 110 1.40269V4.56126C110 5.43822 109.708 5.73054 108.829 5.73054H105.316C104.144 5.73054 104.144 5.73054 104.144 6.89983V39.9996C104.144 40.8773 103.851 41.1697 102.973 41.1697H99.4583C98.5799 41.1697 98.2871 40.8766 98.2871 39.9996V6.90058C98.2871 5.73129 98.2871 5.73129 97.1737 5.73129H93.6009C92.7225 5.73129 92.4297 5.43822 92.4297 4.56201V1.40269C92.4289 0.52647 92.7225 0.233398 93.6001 0.233398Z" fill="black"/>
<path d="M13.3292 54.7172C13.3292 57.5947 11.4162 59.3021 8.55811 59.3021H5.92371V63.6854H3.19922V50.2012H8.57989C11.4162 50.2012 13.3292 51.9993 13.3292 54.7172ZM8.3997 52.5832H5.92221V56.9418H8.42073C8.98399 56.9158 9.51535 56.6733 9.90367 56.2651C10.292 55.8569 10.5072 55.3147 10.5043 54.7517C10.5014 54.1888 10.2806 53.6488 9.88806 53.2446C9.49554 52.8404 8.9617 52.6035 8.3982 52.5832H8.3997Z" fill="black"/>
<path d="M23.535 63.6854H20.8105V50.2012H23.535V63.6854Z" fill="black"/>
<path d="M32.25 61.6849L38.666 52.5832H32.4745V50.2012H42.2215V52.2909L35.9903 61.3019H42.2215V63.6847H32.25V61.6849Z" fill="black"/>
<path d="M50.332 61.6849L56.748 52.5832H50.5565V50.2012H60.3036V52.2909L54.0723 61.3019H60.3036V63.6847H50.332V61.6849Z" fill="black"/>
<path d="M80.2994 63.6854H77.3715L76.5164 61.0785H71.4285L70.5959 63.6854H67.668L72.5314 50.2012H75.4353L80.2994 63.6854ZM72.1507 58.8764H75.7949L73.9728 53.2795L72.1507 58.8764Z" fill="black"/>
</g>
<defs>
<clipPath id="clip0_244_21031">
<rect width="110" height="68" fill="white"/>
</clipPath>
</defs>
</svg>
