<svg width="16" height="16" viewBox="0 0 16 16" fill="none" xmlns="http://www.w3.org/2000/svg">
<path fill-rule="evenodd" clip-rule="evenodd" d="M11 2.9853V3.13663C11.866 3.21582 12.7285 3.32969 13.5853 3.47797C13.65 3.48917 13.7119 3.51301 13.7674 3.54812C13.8229 3.58324 13.8709 3.62893 13.9087 3.6826C13.9465 3.73628 13.9734 3.79687 13.9878 3.86093C14.0022 3.925 14.0039 3.99127 13.9927 4.05597C13.9815 4.12066 13.9576 4.18252 13.9225 4.23801C13.8874 4.29349 13.8417 4.34152 13.788 4.37934C13.7344 4.41716 13.6738 4.44405 13.6097 4.45845C13.5456 4.47286 13.4794 4.4745 13.4147 4.4633L13.2753 4.43997L12.6053 13.1533C12.5667 13.6557 12.3399 14.125 11.9702 14.4674C11.6005 14.8097 11.1152 14.9999 10.6113 15H5.38934C4.88547 14.9999 4.40018 14.8097 4.03049 14.4674C3.6608 14.125 3.43397 13.6557 3.39534 13.1533L2.72467 4.43997L2.58534 4.4633C2.52064 4.4745 2.45437 4.47286 2.39031 4.45845C2.32625 4.44405 2.26565 4.41716 2.21198 4.37934C2.10358 4.30295 2.02997 4.18663 2.00734 4.05597C1.98471 3.9253 2.01491 3.791 2.0913 3.6826C2.16769 3.57421 2.28401 3.5006 2.41467 3.47797C3.27152 3.32952 4.13399 3.21565 5 3.13663V2.9853C5 1.94263 5.80867 1.05197 6.87734 1.01797C7.62581 0.994012 8.37486 0.994012 9.12334 1.01797C10.192 1.05197 11 1.94263 11 2.9853ZM6.90934 2.0173C7.63649 1.99404 8.36419 1.99404 9.09134 2.0173C9.59334 2.0333 10 2.45597 10 2.9853V3.06063C8.6679 2.97973 7.33211 2.97973 6 3.06063V2.9853C6 2.45597 6.40601 2.0333 6.90934 2.0173ZM6.67267 5.98063C6.67013 5.91497 6.65469 5.85045 6.62721 5.79076C6.59974 5.73107 6.56078 5.67738 6.51255 5.63274C6.46433 5.58811 6.40779 5.55341 6.34615 5.53063C6.28452 5.50785 6.219 5.49743 6.15334 5.49997C6.08768 5.5025 6.02316 5.51795 5.96347 5.54542C5.90378 5.5729 5.85008 5.61186 5.80545 5.66008C5.76081 5.70831 5.72611 5.76485 5.70333 5.82649C5.68055 5.88812 5.67013 5.95364 5.67267 6.0193L5.904 12.0193C5.90913 12.1518 5.96669 12.2769 6.06402 12.367C6.11222 12.4116 6.16873 12.4462 6.23032 12.469C6.29191 12.4918 6.35739 12.5022 6.423 12.4996C6.48862 12.4971 6.5531 12.4817 6.61275 12.4542C6.6724 12.4267 6.72606 12.3878 6.77066 12.3396C6.81526 12.2914 6.84994 12.2349 6.8727 12.1733C6.89547 12.1117 6.90588 12.0463 6.90334 11.9806L6.67267 5.98063ZM10.326 6.0193C10.3309 5.95238 10.3223 5.88516 10.3006 5.82164C10.279 5.75812 10.2448 5.69961 10.2001 5.64959C10.1553 5.59957 10.101 5.55907 10.0403 5.53049C9.97957 5.50191 9.91373 5.48585 9.84668 5.48325C9.77963 5.48066 9.71274 5.49158 9.65 5.51538C9.58726 5.53918 9.52996 5.57536 9.4815 5.62177C9.43304 5.66818 9.39441 5.72388 9.36793 5.78553C9.34144 5.84718 9.32764 5.91353 9.32734 5.98063L9.09601 11.9806C9.09088 12.1132 9.13864 12.2425 9.22878 12.3398C9.31892 12.4372 9.44406 12.4948 9.57667 12.5C9.70928 12.5051 9.83849 12.4573 9.93589 12.3672C10.0333 12.277 10.0909 12.1519 10.096 12.0193L10.326 6.0193Z" fill="#FF4A4A"/>
</svg>
