<svg width="33" height="32" viewBox="0 0 33 32" fill="none" xmlns="http://www.w3.org/2000/svg">
<path d="M22.7627 27.04C21.4543 28.3067 20.0258 28.1067 18.6507 27.5067C17.1955 26.8933 15.8605 26.8667 14.3252 27.5067C12.4027 28.3333 11.3881 28.0933 10.2399 27.04C3.72493 20.3333 4.68616 10.12 12.0823 9.74667C13.8846 9.84 15.1396 10.7333 16.1942 10.8133C17.7696 10.4933 19.2782 9.57333 20.9604 9.69333C22.9763 9.85333 24.4982 10.6533 25.4995 12.0933C21.3342 14.5867 22.3221 20.0667 26.1403 21.6C25.3794 23.6 24.3914 25.5867 22.7493 27.0533L22.7627 27.04ZM16.0607 9.66667C15.8605 6.69333 18.2769 4.24 21.0538 4C21.441 7.44 17.9298 10 16.0607 9.66667Z" fill="black"/>
</svg>
