<svg width="13" height="16" viewBox="0 0 13 16" fill="none" xmlns="http://www.w3.org/2000/svg">
<path d="M10.5309 14.899C9.71423 15.6907 8.82257 15.5657 7.96423 15.1907C7.0559 14.8074 6.22257 14.7907 5.26423 15.1907C4.06423 15.7074 3.4309 15.5574 2.71423 14.899C-1.35243 10.7074 -0.752435 4.32402 3.86423 4.09069C4.98923 4.14902 5.77257 4.70736 6.4309 4.75736C7.41423 4.55736 8.3559 3.98236 9.4059 4.05736C10.6642 4.15736 11.6142 4.65736 12.2392 5.55736C9.63923 7.11569 10.2559 10.5407 12.6392 11.499C12.1642 12.749 11.5476 13.9907 10.5226 14.9074L10.5309 14.899ZM6.34757 4.04069C6.22257 2.18236 7.7309 0.649023 9.46423 0.499023C9.7059 2.64902 7.51423 4.24902 6.34757 4.04069Z" fill="white"/>
</svg>
