<svg width="86" height="86" viewBox="0 0 86 86" fill="none" xmlns="http://www.w3.org/2000/svg">
<path d="M21.8506 7.2002L11.1631 21.4502V71.3252C11.1631 73.2149 11.9138 75.0271 13.25 76.3633C14.5861 77.6995 16.3984 78.4502 18.2881 78.4502H68.1631C70.0528 78.4502 71.865 77.6995 73.2012 76.3633C74.5374 75.0271 75.2881 73.2149 75.2881 71.3252V21.4502L64.6006 7.2002H21.8506Z" stroke="black" stroke-width="3" stroke-linecap="round" stroke-linejoin="round"/>
<path d="M11.1631 21.4502H75.2881" stroke="black" stroke-width="3" stroke-linecap="round" stroke-linejoin="round"/>
<path d="M57.4756 35.7002C57.4756 39.4795 55.9743 43.1041 53.3019 45.7765C50.6295 48.4489 47.0049 49.9502 43.2256 49.9502C39.4463 49.9502 35.8217 48.4489 33.1493 45.7765C30.4769 43.1041 28.9756 39.4795 28.9756 35.7002" stroke="white" stroke-width="3" stroke-linecap="round" stroke-linejoin="round"/>
</svg>
