<svg width="24" height="24" viewBox="0 0 24 24" fill="none" xmlns="http://www.w3.org/2000/svg">
<path fill-rule="evenodd" clip-rule="evenodd" d="M0.625 12C0.625 5.7175 5.7175 0.625 12 0.625C18.2825 0.625 23.375 5.7175 23.375 12C23.375 18.2825 18.2825 23.375 12 23.375C5.7175 23.375 0.625 18.2825 0.625 12ZM16.2117 9.88367C16.2817 9.79039 16.3323 9.68407 16.3606 9.57094C16.389 9.45781 16.3944 9.34017 16.3766 9.22491C16.3588 9.10966 16.3181 8.99913 16.257 8.89981C16.1959 8.8005 16.1155 8.7144 16.0206 8.64659C15.9258 8.57878 15.8183 8.53062 15.7045 8.50493C15.5908 8.47925 15.473 8.47657 15.3582 8.49704C15.2434 8.51751 15.1339 8.56073 15.036 8.62415C14.9381 8.68756 14.8539 8.76991 14.7883 8.86633L11.013 14.1513L9.11833 12.2567C8.95246 12.1021 8.73308 12.018 8.50639 12.022C8.27971 12.026 8.06342 12.1178 7.90311 12.2781C7.74279 12.4384 7.65096 12.6547 7.64696 12.8814C7.64296 13.1081 7.72711 13.3275 7.88167 13.4933L10.5067 16.1183C10.5965 16.2081 10.7048 16.2772 10.824 16.3209C10.9432 16.3646 11.0705 16.3819 11.1971 16.3714C11.3236 16.361 11.4464 16.3231 11.5568 16.2605C11.6673 16.1979 11.7628 16.1119 11.8367 16.0087L16.2117 9.88367Z" fill="white"/>
</svg>
