<svg width="22" height="16" viewBox="0 0 22 16" fill="none" xmlns="http://www.w3.org/2000/svg">
<g clip-path="url(#clip0_244_20079)">
<path d="M11.017 5.63866C14.3568 5.63866 17.6952 5.63571 21.035 5.64014C21.9336 5.64161 21.9951 5.7051 21.9965 6.60276C22.0009 9.18503 22.0024 11.7658 21.9951 14.3481C21.9922 15.5322 21.5341 15.9943 20.3486 15.9958C14.108 16.0017 7.86896 16.0017 1.62841 15.9943C0.393174 15.9928 0.018507 15.5986 0.01558 14.3481C0.00972578 11.7909 0.0111893 9.23375 0.01558 6.67659C0.0170435 5.71396 0.0916842 5.64161 1.0708 5.64014C4.38719 5.63718 7.70211 5.63866 11.017 5.63866ZM4.63892 13.4829C5.22433 13.4829 5.80975 13.4696 6.39517 13.4873C6.9279 13.5021 7.0523 13.2083 7.04645 12.7403C7.04206 12.3121 6.94693 12.0168 6.44493 12.0198C5.2258 12.0271 4.0052 12.0242 2.78607 12.0227C2.27529 12.0212 2.20504 12.3475 2.20504 12.7624C2.20504 13.1891 2.30895 13.4888 2.80802 13.4829C3.41978 13.4755 4.02862 13.4814 4.63892 13.4829Z" fill="black" fill-opacity="0.7"/>
<path d="M10.9517 3.90396C7.61486 3.90396 4.27797 3.88919 0.941093 3.91577C0.253227 3.92167 -0.0467994 3.7135 0.00588821 2.99448C0.0512581 2.38324 -0.00142952 1.76609 0.0278414 1.1519C0.0615029 0.45946 0.465441 0.088878 1.13867 0.0150569C1.33186 -0.00561306 1.52797 0.000292637 1.72263 0.000292637C7.88561 0.000292637 14.0486 -0.00118379 20.2101 0.000292637C21.6341 0.000292637 21.9883 0.36054 21.9942 1.77643C22.003 3.90248 22.003 3.90248 19.8647 3.90248C16.8952 3.90543 13.9242 3.90543 10.9517 3.90396Z" fill="black" fill-opacity="0.7"/>
</g>
<defs>
<clipPath id="clip0_244_20079">
<rect width="22" height="16" fill="white"/>
</clipPath>
</defs>
</svg>
