<svg width="110" height="110" viewBox="0 0 110 110" fill="none" xmlns="http://www.w3.org/2000/svg">
<circle cx="55" cy="55" r="55" fill="#E3642C"/>
<g clip-path="url(#clip0_0_8917)">
<path d="M80.3874 70.2699C80.213 70.4544 80.0002 70.5988 79.7638 70.6931C79.5274 70.7874 79.2732 70.8293 79.0188 70.8157C77.7381 70.8157 76.9551 69.7902 76.9551 68.5314C76.9551 67.2726 77.7381 66.2546 79.0188 66.2546C79.2726 66.2408 79.5263 66.2818 79.7626 66.3748C79.9988 66.4678 80.212 66.6106 80.3874 66.7933L79.8826 67.4697C79.7758 67.3514 79.6447 67.2571 79.4983 67.1932C79.3519 67.1292 79.1934 67.0971 79.0335 67.0989C78.3525 67.0989 77.8769 67.7025 77.8769 68.5318C77.8769 69.3612 78.3525 69.9723 79.0335 69.9723C79.194 69.9736 79.353 69.9406 79.4995 69.8754C79.646 69.8102 79.7767 69.7144 79.8826 69.5944L80.3874 70.2699Z" fill="white"/>
<path d="M82.441 69.3091C82.2438 69.3092 82.0487 69.2689 81.8679 69.1907C81.687 69.1125 81.5244 68.9981 81.39 68.8547C81.2556 68.7113 81.1525 68.5419 81.0869 68.357C81.0213 68.1722 80.9948 67.9759 81.0089 67.7805C80.9907 67.5827 81.0142 67.3832 81.0778 67.1949C81.1415 67.0067 81.244 66.8336 81.3787 66.6869C81.5134 66.5402 81.6775 66.423 81.8603 66.3428C82.0432 66.2626 82.2409 66.2212 82.4407 66.2212C82.6406 66.2212 82.8383 66.2626 83.0211 66.3428C83.204 66.423 83.368 66.5402 83.5028 66.6869C83.6375 66.8336 83.74 67.0067 83.8036 67.1949C83.8673 67.3832 83.8908 67.5827 83.8725 67.7805C83.8861 67.9758 83.8593 68.1718 83.7935 68.3564C83.7278 68.5409 83.6246 68.7101 83.4904 68.8534C83.3562 68.9967 83.1938 69.1111 83.0133 69.1895C82.8327 69.2679 82.638 69.3086 82.441 69.3091ZM83.0403 67.7659C83.0403 67.2399 82.7932 66.8894 82.441 66.8894C82.0812 66.8894 81.8345 67.2399 81.8345 67.7659C81.8345 68.3056 82.0816 68.6424 82.441 68.6424C82.7936 68.6433 83.0403 68.3065 83.0403 67.7668V67.7659Z" fill="white"/>
<path d="M81.1445 69.9008V70.7134H83.7464V69.9008H81.1445Z" fill="white"/>
<path d="M80.414 74.9999C79.1253 74.9999 77.8655 74.62 76.794 73.9083C75.7225 73.1967 74.8874 72.1852 74.3943 71.0019C73.9012 69.8185 73.7722 68.5164 74.0237 67.2602C74.2752 66.004 74.8958 64.8501 75.8071 63.9445C76.7184 63.0388 77.8794 62.4221 79.1434 62.1723C80.4074 61.9224 81.7175 62.0507 82.9081 62.5409C84.0987 63.031 85.1164 63.8611 85.8324 64.926C86.5483 65.991 86.9305 67.2431 86.9305 68.5239C86.9285 70.2409 86.2413 71.887 85.0196 73.1011C83.798 74.3152 82.1416 74.9981 80.414 74.9999ZM80.414 62.9689C79.3085 62.9689 78.2278 63.2947 77.3085 63.9052C76.3893 64.5156 75.6729 65.3832 75.2498 66.3984C74.8267 67.4135 74.716 68.5305 74.9317 69.6082C75.1474 70.6858 75.6798 71.6757 76.4615 72.4526C77.2432 73.2296 78.2392 73.7587 79.3235 73.973C80.4078 74.1874 81.5317 74.0774 82.5531 73.6569C83.5745 73.2364 84.4475 72.5244 85.0617 71.6108C85.6759 70.6972 86.0037 69.6231 86.0037 68.5243C86.0022 67.0514 85.4128 65.6393 84.3649 64.5977C83.3169 63.5562 81.896 62.9704 80.414 62.9689Z" fill="white"/>
<path d="M28.5359 56.1909C29.6086 56.1909 30.612 55.5031 30.612 53.7139V53.4731C30.612 52.9568 30.7855 52.7853 31.3041 52.7853H33.3448C33.8638 52.7853 34.0715 53.1985 34.0369 53.6799C33.7263 57.7738 31.2336 59.3553 28.5359 59.3553C25.6629 59.3553 22.998 57.567 22.998 52.8197V41.536C22.998 36.7888 25.6634 35 28.5359 35C31.2358 35 33.7263 36.5824 34.0369 40.6762C34.0719 41.1582 33.8638 41.5708 33.3448 41.5708H31.3041C30.7851 41.5708 30.612 41.3984 30.612 40.883V40.6401C30.612 38.8513 29.6081 38.164 28.5359 38.164C27.4636 38.164 26.4592 38.8513 26.4592 40.6401V53.7139C26.461 55.5026 27.4645 56.1909 28.5359 56.1909Z" fill="white"/>
<path d="M47.7468 41.5361V42.6384C47.7468 45.7689 46.8467 47.3513 45.6356 48.2459L47.7122 58.4974C47.8507 59.0477 47.5743 59.2196 47.297 59.2196H45.1166C44.6667 59.2196 44.4591 59.2196 44.3553 58.7033L42.5897 49.4495C42.5844 49.4015 42.5692 49.355 42.545 49.313C42.5209 49.271 42.4883 49.2344 42.4493 49.2055C42.4103 49.1765 42.3658 49.1559 42.3184 49.1448C42.271 49.1337 42.2219 49.1323 42.174 49.1409H41.5165C40.8245 49.1409 40.8245 49.1409 40.8245 49.8287V58.5296C40.8245 59.0459 40.6515 59.2179 40.1324 59.2179H38.0553C37.5363 59.2179 37.3633 59.0455 37.3633 58.5296V35.8255C37.3633 35.3096 37.5367 35.1377 38.0553 35.1377H42.5551C45.4276 35.1377 47.7468 36.788 47.7468 41.5361ZM41.5165 38.1654C40.8245 38.1654 40.8245 38.1654 40.8245 38.8528V45.4223C40.8245 46.1101 40.8245 46.1101 41.5165 46.1101H42.5555C43.6282 46.1101 44.2857 45.4223 44.2857 43.6679V40.6415C44.2857 38.8528 43.6273 38.1654 42.5555 38.1654H41.5165Z" fill="white"/>
<path d="M59.3763 35.1377H61.4533C61.9724 35.1377 62.145 35.3101 62.145 35.8255V52.8194C62.145 57.5671 59.4801 59.355 56.6072 59.355C53.7342 59.355 51.0693 57.5671 51.0693 52.8194V35.8255C51.0693 35.3096 51.2428 35.1377 51.7614 35.1377H53.8385C54.358 35.1377 54.531 35.3101 54.531 35.8255V53.714C54.531 55.5028 55.5345 56.191 56.6072 56.191C57.6798 56.191 58.6842 55.5032 58.6842 53.714V35.8255C58.6842 35.3101 58.8572 35.1377 59.3763 35.1377Z" fill="white"/>
<path d="M64.7747 53.7137C64.7747 53.1291 64.9135 52.9567 65.5013 52.9567H67.5092C67.959 52.9567 68.2013 53.1291 68.2013 53.7481C68.2013 55.0898 68.8933 56.1907 70.3125 56.1907C71.6971 56.1907 72.3199 55.1242 72.4592 54.1625C73.1162 50.0696 65.5013 46.1133 65.1558 40.4371C65.0472 39.1174 65.469 37.8088 66.3289 36.7975C67.1888 35.7862 68.4167 35.1546 69.7441 35.0409C71.0714 34.9273 72.3899 35.3409 73.4112 36.1911C74.4324 37.0414 75.0732 38.2591 75.1933 39.5778C75.2621 40.5063 75.1933 40.68 74.5012 40.68H72.5972C72.0781 40.68 71.9051 40.5076 71.9051 39.9922C71.9051 38.7533 71.1784 38.1695 70.2437 38.1695C68.6515 38.1695 68.4781 39.7171 68.5482 40.4049C68.9284 44.2576 75.1582 47.7323 75.8166 53.133C75.9165 53.8864 75.8586 54.6521 75.6465 55.3822C75.4344 56.1122 75.0727 56.7908 74.5841 57.3753C74.0955 57.9598 73.4906 58.4375 72.8074 58.7785C72.1241 59.1195 71.3773 59.3164 70.6138 59.3569C69.8503 59.3973 69.0867 59.2804 68.3708 59.0134C67.655 58.7465 67.0024 58.3353 66.4541 57.8058C65.9058 57.2762 65.4736 56.6397 65.1847 55.9361C64.8957 55.2326 64.7563 54.4773 64.7751 53.7177L64.7747 53.7137Z" fill="white"/>
<path d="M78.3088 35.1377H87.3078C87.8277 35.1377 87.9999 35.3101 87.9999 35.8255V37.6835C87.9999 38.1994 87.8273 38.3713 87.3078 38.3713H85.2316C84.5396 38.3713 84.5396 38.3713 84.5396 39.0591V58.5296C84.5396 59.0459 84.3661 59.2179 83.8475 59.2179H81.7704C81.2514 59.2179 81.0784 59.0455 81.0784 58.5296V39.0596C81.0784 38.3718 81.0784 38.3718 80.4205 38.3718H78.3092C77.7902 38.3718 77.6172 38.1994 77.6172 37.6839V35.8255C77.6167 35.3101 77.7902 35.1377 78.3088 35.1377Z" fill="white"/>
<path d="M30.8765 67.1863C30.8765 68.8789 29.7461 69.8833 28.0572 69.8833H26.5006V72.4617H24.8906V64.5298H28.0701C29.7461 64.5298 30.8765 65.5875 30.8765 67.1863ZM27.9636 65.931H26.4997V68.4949H27.9761C28.3089 68.4795 28.6229 68.3369 28.8523 68.0968C29.0818 67.8567 29.209 67.5377 29.2073 67.2066C29.2055 66.8754 29.0751 66.5578 28.8431 66.32C28.6112 66.0823 28.2957 65.9429 27.9628 65.931H27.9636Z" fill="white"/>
<path d="M36.9068 72.4617H35.2969V64.5298H36.9068V72.4617Z" fill="white"/>
<path d="M42.0566 71.2849L45.8479 65.931H42.1893V64.5298H47.9489V65.759L44.2668 71.0596H47.9489V72.4613H42.0566V71.2849Z" fill="white"/>
<path d="M52.7412 71.2849L56.5325 65.931H52.8739V64.5298H58.6335V65.759L54.9514 71.0596H58.6335V72.4613H52.7412V71.2849Z" fill="white"/>
<path d="M70.4504 72.4617H68.7202L68.2149 70.9282H65.2085L64.7165 72.4617H62.9863L65.8602 64.5298H67.5761L70.4504 72.4617ZM65.6352 69.6328H67.7886L66.7119 66.3406L65.6352 69.6328Z" fill="white"/>
</g>
<defs>
<clipPath id="clip0_0_8917">
<rect width="65" height="40" fill="white" transform="translate(23 35)"/>
</clipPath>
</defs>
</svg>
