<svg width="20" height="20" viewBox="0 0 20 20" fill="none" xmlns="http://www.w3.org/2000/svg">
<g clip-path="url(#clip0_0_1002)">
<path d="M9.96052 12.6963C9.96052 12.6963 9.30926 13.5389 7.86057 13.5389C5.89389 13.5389 4.69238 11.9548 4.69238 10.0118C4.69238 8.06871 5.89389 6.49536 7.86057 6.49536C9.30926 6.49536 9.96052 7.32717 9.96052 7.32717L9.18674 8.37177C9.18674 8.37177 8.73752 7.80004 7.88422 7.80004C6.83962 7.80004 6.10883 8.73287 6.10883 10.0118C6.10883 11.2906 6.83962 12.2364 7.88422 12.2364C8.73752 12.2364 9.18674 11.6517 9.18674 11.6517L9.96052 12.6963Z" fill="#E3642C"/>
<path d="M13.1119 11.2132C11.8997 11.2132 10.9131 10.2933 10.9131 8.8532C10.9131 7.41312 11.8997 6.4502 13.1119 6.4502C14.3242 6.4502 15.3086 7.40237 15.3086 8.8532C15.3086 10.304 14.3134 11.2132 13.1119 11.2132ZM14.0318 8.83171C14.0318 8.01924 13.6535 7.4776 13.1119 7.4776C12.5703 7.4776 12.1812 8.01924 12.1812 8.83171C12.1812 9.64418 12.5595 10.1858 13.1119 10.1858C13.6643 10.1858 14.0318 9.66567 14.0318 8.83171Z" fill="#E3642C"/>
<path d="M11.1211 12.1266V13.3818H15.1146V12.1266H11.1211Z" fill="#E3642C"/>
<path d="M10.0011 20C4.48576 20 0 15.5142 0 10.0011C0 4.48791 4.48576 0 10.0011 0C15.5164 0 20.0021 4.48576 20.0021 10.0011C20.0021 15.5164 15.5164 20.0021 10.0011 20.0021V20ZM10.0011 1.42289C5.27028 1.42289 1.42289 5.27028 1.42289 10.0011C1.42289 14.7319 5.27028 18.5793 10.0011 18.5793C14.7319 18.5793 18.5793 14.7319 18.5793 10.0011C18.5793 5.27028 14.7297 1.42289 10.0011 1.42289Z" fill="#E3642C"/>
</g>
<defs>
<clipPath id="clip0_0_1002">
<rect width="20" height="20" fill="white"/>
</clipPath>
</defs>
</svg>
