<svg width="10" height="13" viewBox="0 0 10 13" fill="none" xmlns="http://www.w3.org/2000/svg">
<path fill-rule="evenodd" clip-rule="evenodd" d="M4.539 12.841L4.542 12.844L4.544 12.846C4.67522 12.9454 4.83535 12.9993 5 12.9993C5.16465 12.9993 5.32478 12.9454 5.456 12.846L5.458 12.844L5.461 12.841L5.473 12.832C5.53744 12.7824 5.60079 12.7314 5.663 12.679C6.40862 12.0505 7.09362 11.3535 7.709 10.597C8.81 9.235 10 7.255 10 5C10 3.67392 9.47322 2.40215 8.53553 1.46447C7.59785 0.526784 6.32608 0 5 0C3.67392 0 2.40215 0.526784 1.46447 1.46447C0.526784 2.40215 0 3.67392 0 5C0 7.255 1.19 9.235 2.292 10.597C2.90739 11.3535 3.59239 12.0505 4.338 12.679C4.4003 12.7309 4.46331 12.7819 4.527 12.832L4.539 12.842V12.841ZM5 6.5C5.19698 6.5 5.39204 6.4612 5.57403 6.38582C5.75601 6.31044 5.92137 6.19995 6.06066 6.06066C6.19995 5.92137 6.31044 5.75601 6.38582 5.57403C6.4612 5.39204 6.5 5.19698 6.5 5C6.5 4.80302 6.4612 4.60796 6.38582 4.42597C6.31044 4.24399 6.19995 4.07863 6.06066 3.93934C5.92137 3.80005 5.75601 3.68956 5.57403 3.61418C5.39204 3.5388 5.19698 3.5 5 3.5C4.60218 3.5 4.22064 3.65804 3.93934 3.93934C3.65804 4.22064 3.5 4.60218 3.5 5C3.5 5.39782 3.65804 5.77936 3.93934 6.06066C4.22064 6.34196 4.60218 6.5 5 6.5Z" fill="#E3642C"/>
</svg>
