<svg width="168" height="168" viewBox="0 0 168 168" fill="none" xmlns="http://www.w3.org/2000/svg">
<g filter="url(#filter0_d_244_18650)">
<circle cx="84" cy="84" r="54" fill="white"/>
</g>
<circle cx="84.0009" cy="83.9999" r="45.4091" fill="#137AC9" fill-opacity="0.05"/>
<path d="M82.5508 59.4551C83.515 59.4551 84.4792 59.4539 85.4434 59.4551C85.4434 60.3368 85.4434 61.2173 85.4434 62.0978C84.4792 62.1002 83.515 62.099 82.5508 62.099C82.5508 61.2173 82.5508 60.3356 82.5508 59.4551Z" fill="#137AC9"/>
<path d="M67.9336 64.9631C68.717 64.4195 69.4941 63.8673 70.2738 63.3188C72.2273 65.925 74.1833 68.5312 76.1381 71.1374C75.361 71.6895 74.5801 72.2392 73.7979 72.7853C71.8444 70.1767 69.8859 67.5729 67.9336 64.9631Z" fill="#137AC9"/>
<path d="M97.7262 63.3154C98.5046 63.8676 99.288 64.4112 100.064 64.9657C98.1079 67.5719 96.1543 70.1781 94.1996 72.7843C93.4199 72.2334 92.6428 71.6825 91.8594 71.1389C93.8129 68.5302 95.7714 65.9241 97.7262 63.3154Z" fill="#137AC9"/>
<path d="M82.6922 67.6594C82.9835 67.0355 83.7782 66.6999 84.4461 66.9273C84.8516 67.0513 85.173 67.3602 85.3438 67.7336C86.8127 70.6207 88.2853 73.5078 89.7555 76.395C93.0674 76.8547 96.3781 77.3204 99.6888 77.7923C100.286 77.8568 100.812 78.3116 100.933 78.8844C101.055 79.3806 100.854 79.9133 100.468 80.2501C98.0855 82.5024 95.6989 84.7523 93.3147 87.0046C93.8797 90.2164 94.456 93.427 95.0172 96.6388C95.1666 97.3892 94.5652 98.1712 93.7818 98.2502C93.3135 98.3281 92.8841 98.0994 92.4924 97.8854C89.6601 96.4467 86.834 94.9946 83.9992 93.562C80.9973 95.0883 78.0018 96.6267 74.9937 98.1383C74.0596 98.6029 72.8393 97.7747 72.9648 96.769C73.5135 93.5097 74.1148 90.259 74.681 87.0034C72.2957 84.7498 69.9103 82.4939 67.5224 80.2428C67.1382 79.9096 66.9386 79.3769 67.0616 78.8856C67.1809 78.3177 67.6994 77.858 68.2945 77.7984C71.6102 77.3265 74.9271 76.8717 78.2403 76.3925C79.7255 73.4823 81.2057 70.5684 82.6922 67.6594ZM83.9979 71.4234C82.9019 73.5784 81.8033 75.7309 80.7073 77.8859C80.5353 78.224 80.3759 78.5962 80.0407 78.8139C79.6992 79.0644 79.2572 79.079 78.8517 79.141C76.4287 79.4827 74.0056 79.8245 71.5813 80.1626C73.413 81.8895 75.2397 83.6201 77.0715 85.3458C77.4983 85.6887 77.7733 86.2299 77.6553 86.7723C77.2146 89.2824 76.7651 91.7913 76.3245 94.3014C78.6534 93.123 80.9785 91.9348 83.3049 90.7503C83.7569 90.4998 84.3306 90.535 84.7725 90.788C87.0738 91.9579 89.3738 93.1278 91.6713 94.3039C91.2282 91.7913 90.78 89.2812 90.3393 86.7686C90.2439 86.2992 90.4234 85.7969 90.7887 85.4759C92.6644 83.7064 94.5401 81.9357 96.4145 80.165C93.832 79.7953 91.2495 79.4353 88.6657 79.0729C88.1736 79.023 87.7141 78.7299 87.5007 78.2934C86.3293 76.0058 85.1655 73.7134 83.9979 71.4234Z" fill="#137AC9"/>
<path d="M59.4551 77.7478C59.7514 76.8588 60.0502 75.9698 60.349 75.082C61.214 75.3508 62.0803 75.622 62.9428 75.8993C62.644 76.7858 62.3489 77.6736 62.0489 78.5602C61.1826 78.2914 60.3214 78.0117 59.4551 77.7478Z" fill="#137AC9"/>
<path d="M105.055 75.9027C105.921 75.6352 106.785 75.3615 107.648 75.0879C107.949 75.9745 108.244 76.8635 108.542 77.75C107.68 78.0285 106.814 78.2985 105.947 78.5685C105.65 77.6795 105.351 76.7917 105.055 75.9027Z" fill="#137AC9"/>
<path d="M59.4531 90.2557C62.6182 89.2669 65.7794 88.2648 68.9432 87.2725C69.242 88.159 69.5383 89.0456 69.8359 89.9334C66.6758 90.9355 63.5108 91.9278 60.347 92.9214C60.0482 92.0324 59.7494 91.1447 59.4531 90.2557Z" fill="#137AC9"/>
<path d="M99.0521 87.2598C102.216 88.2546 105.382 89.2445 108.542 90.2503C108.242 91.1356 107.947 92.0246 107.648 92.9112C104.486 91.9115 101.322 90.9191 98.1582 89.9243C98.4557 89.0353 98.7533 88.1475 99.0521 87.2598Z" fill="#137AC9"/>
<path d="M82.5508 98.8788C83.515 98.8776 84.4792 98.8776 85.4434 98.8788C85.4434 102.1 85.4434 105.322 85.4434 108.544C84.4792 108.546 83.515 108.546 82.5508 108.545C82.5508 105.322 82.5508 102.1 82.5508 98.8788Z" fill="#137AC9"/>
<path d="M67.9355 103.032C68.4704 102.318 69.0065 101.605 69.5413 100.891C70.3197 101.441 71.1018 101.987 71.879 102.54C71.3467 103.253 70.8118 103.963 70.2783 104.675C69.4948 104.13 68.7177 103.578 67.9355 103.032Z" fill="#137AC9"/>
<path d="M96.1152 102.541C96.8986 101.997 97.6733 101.443 98.4554 100.898C98.9915 101.607 99.5226 102.321 100.059 103.031C99.2828 103.587 98.4981 104.13 97.721 104.681C97.1861 103.967 96.6488 103.255 96.1152 102.541Z" fill="#137AC9"/>
<defs>
<filter id="filter0_d_244_18650" x="0.545454" y="0.545454" width="166.909" height="166.909" filterUnits="userSpaceOnUse" color-interpolation-filters="sRGB">
<feFlood flood-opacity="0" result="BackgroundImageFix"/>
<feColorMatrix in="SourceAlpha" type="matrix" values="0 0 0 0 0 0 0 0 0 0 0 0 0 0 0 0 0 0 127 0" result="hardAlpha"/>
<feOffset/>
<feGaussianBlur stdDeviation="14.7273"/>
<feComposite in2="hardAlpha" operator="out"/>
<feColorMatrix type="matrix" values="0 0 0 0 0.0745098 0 0 0 0 0.478431 0 0 0 0 0.788235 0 0 0 0.09 0"/>
<feBlend mode="normal" in2="BackgroundImageFix" result="effect1_dropShadow_244_18650"/>
<feBlend mode="normal" in="SourceGraphic" in2="effect1_dropShadow_244_18650" result="shape"/>
</filter>
</defs>
</svg>
