<svg width="17" height="20" viewBox="0 0 17 20" fill="none" xmlns="http://www.w3.org/2000/svg">
<path d="M14.2184 0H1.83673C0.823878 0 0 0.824082 0 1.83673V18.1633C0 19.1761 0.823878 20 1.83673 20H14.2184C15.2312 20 16.0551 19.1761 16.0551 18.1633V1.83673C16.0551 0.824082 15.2312 0 14.2184 0ZM14.8306 18.1633C14.8306 18.5008 14.5559 18.7755 14.2184 18.7755H1.83673C1.49918 18.7755 1.22449 18.5008 1.22449 18.1633V1.83673C1.22449 1.49918 1.49918 1.22449 1.83673 1.22449H14.2184C14.5559 1.22449 14.8306 1.49918 14.8306 1.83673V18.1633Z" fill="black"/>
<path d="M10.6553 3.85061C10.2743 3.52837 9.86979 3.45898 9.61898 3.50184C9.32428 3.55163 9.10857 3.80674 9.10857 4.10551V12.4931H10.3331V10.1667L11.4204 10.169C11.4208 10.169 11.4212 10.169 11.4216 10.169C11.5839 10.169 11.7394 10.1047 11.8541 9.9902C11.9692 9.87531 12.0339 9.71939 12.0339 9.55674C12.0337 6.54367 11.57 4.62388 10.6553 3.85061ZM10.3329 8.94225V5.59102C10.5506 6.19714 10.7614 7.22224 10.8022 8.94326L10.3329 8.94225Z" fill="black"/>
<path d="M5.57775 8.35735V12.5476H6.80224V8.35735C7.7 8.03347 8.35796 7.01796 8.35796 5.81694C8.35796 4.35571 7.38531 3.16694 6.19 3.16694C4.99449 3.16694 4.02163 4.35571 4.02163 5.81694C4.02163 7.01796 4.67939 8.03347 5.57775 8.35735ZM6.19 4.39143C6.70143 4.39143 7.13347 5.04429 7.13347 5.81694C7.13347 6.58939 6.70143 7.24204 6.19 7.24204C5.67837 7.24204 5.24612 6.58939 5.24612 5.81694C5.24612 5.04408 5.67837 4.39143 6.19 4.39143Z" fill="black"/>
<path d="M11.7863 14.2518H4.26878V15.4763H11.7863V14.2518Z" fill="black"/>
<path d="M11.7863 15.9524H4.26878V17.1769H11.7863V15.9524Z" fill="black"/>
</svg>
