<svg width="24" height="24" viewBox="0 0 24 24" fill="none" xmlns="http://www.w3.org/2000/svg">
<path fill-rule="evenodd" clip-rule="evenodd" d="M12 0.625C5.7175 0.625 0.625 5.7175 0.625 12C0.625 18.2825 5.7175 23.375 12 23.375C18.2825 23.375 23.375 18.2825 23.375 12C23.375 5.7175 18.2825 0.625 12 0.625ZM15.5 12.875C15.7321 12.875 15.9546 12.7828 16.1187 12.6187C16.2828 12.4546 16.375 12.2321 16.375 12C16.375 11.7679 16.2828 11.5454 16.1187 11.3813C15.9546 11.2172 15.7321 11.125 15.5 11.125H8.5C8.26794 11.125 8.04538 11.2172 7.88128 11.3813C7.71719 11.5454 7.625 11.7679 7.625 12C7.625 12.2321 7.71719 12.4546 7.88128 12.6187C8.04538 12.7828 8.26794 12.875 8.5 12.875H15.5Z" fill="black" fill-opacity="0.6"/>
</svg>
