<svg width="275" height="275" viewBox="0 0 275 275" fill="none" xmlns="http://www.w3.org/2000/svg">
<g filter="url(#filter0_d_0_11048)">
<circle cx="137.5" cy="137.5" r="113.5" fill="white"/>
</g>
<circle cx="137.5" cy="137.5" r="95.5" fill="#137AC9" fill-opacity="0.05"/>
<path d="M134.461 78.0013C136.818 78.0013 139.175 77.9983 141.532 78.0013C141.532 80.1566 141.532 82.3089 141.532 84.4612C139.175 84.4672 136.818 84.4642 134.461 84.4642C134.461 82.3089 134.461 80.1536 134.461 78.0013Z" fill="#137AC9"/>
<path d="M98.7305 91.4655C100.645 90.1367 102.545 88.787 104.451 87.4463C109.226 93.817 114.008 100.188 118.786 106.558C116.886 107.908 114.977 109.252 113.065 110.587C108.29 104.21 103.503 97.8451 98.7305 91.4655Z" fill="#137AC9"/>
<path d="M171.556 87.4385C173.459 88.7881 175.374 90.117 177.27 91.4726C172.489 97.8433 167.714 104.214 162.935 110.585C161.03 109.238 159.13 107.891 157.215 106.563C161.99 100.186 166.778 93.8151 171.556 87.4385Z" fill="#137AC9"/>
<path d="M134.809 98.0568C135.521 96.5317 137.463 95.7112 139.096 96.2672C140.087 96.5704 140.873 97.3255 141.29 98.2381C144.881 105.296 148.481 112.353 152.074 119.41C160.17 120.534 168.263 121.673 176.356 122.826C177.817 122.984 179.103 124.096 179.397 125.496C179.695 126.709 179.204 128.011 178.262 128.834C172.437 134.34 166.603 139.84 160.775 145.345C162.156 153.196 163.565 161.044 164.936 168.896C165.302 170.73 163.832 172.641 161.916 172.835C160.772 173.025 159.722 172.466 158.765 171.943C151.841 168.426 144.933 164.876 138.003 161.374C130.665 165.105 123.343 168.866 115.99 172.561C113.707 173.697 110.723 171.672 111.03 169.214C112.372 161.247 113.842 153.3 115.226 145.342C109.395 139.834 103.564 134.319 97.7265 128.816C96.7874 128.002 96.2995 126.7 96.6002 125.499C96.8918 124.11 98.1592 122.987 99.6139 122.841C107.719 121.688 115.827 120.576 123.926 119.404C127.557 112.291 131.175 105.168 134.809 98.0568ZM138 107.258C135.321 112.525 132.636 117.787 129.957 123.055C129.536 123.882 129.146 124.791 128.327 125.323C127.492 125.936 126.412 125.971 125.421 126.123C119.498 126.958 113.575 127.794 107.648 128.62C112.126 132.842 116.591 137.072 121.069 141.29C122.112 142.129 122.784 143.451 122.496 144.777C121.419 150.913 120.32 157.046 119.243 163.182C124.936 160.301 130.619 157.397 136.306 154.501C137.411 153.889 138.814 153.975 139.894 154.594C145.519 157.453 151.141 160.313 156.758 163.188C155.674 157.046 154.579 150.91 153.501 144.768C153.268 143.621 153.707 142.393 154.6 141.608C159.185 137.283 163.77 132.954 168.352 128.626C162.039 127.722 155.726 126.842 149.411 125.957C148.208 125.835 147.084 125.118 146.563 124.051C143.699 118.459 140.854 112.855 138 107.258Z" fill="#137AC9"/>
<path d="M78.0078 122.718C78.7321 120.544 79.4625 118.371 80.1929 116.201C82.3074 116.858 84.425 117.521 86.5333 118.199C85.8029 120.366 85.0817 122.536 84.3482 124.703C82.2307 124.046 80.1254 123.363 78.0078 122.718Z" fill="#137AC9"/>
<path d="M189.472 118.207C191.589 117.553 193.701 116.884 195.812 116.215C196.546 118.382 197.267 120.555 197.997 122.722C195.889 123.403 193.771 124.063 191.654 124.723C190.926 122.55 190.196 120.38 189.472 118.207Z" fill="#137AC9"/>
<path d="M78 153.292C85.7368 150.875 93.4644 148.425 101.198 146C101.929 148.167 102.653 150.334 103.38 152.504C95.6556 154.954 87.9188 157.379 80.1851 159.808C79.4547 157.635 78.7243 155.465 78 153.292Z" fill="#137AC9"/>
<path d="M174.798 145.969C182.532 148.401 190.272 150.82 197.996 153.279C197.263 155.443 196.542 157.616 195.811 159.783C188.081 157.34 180.347 154.914 172.613 152.482C173.341 150.309 174.068 148.139 174.798 145.969Z" fill="#137AC9"/>
<path d="M134.461 174.37C136.818 174.367 139.175 174.367 141.532 174.37C141.532 182.245 141.532 190.12 141.532 197.995C139.175 198.001 136.818 198.001 134.461 197.998C134.461 190.12 134.461 182.245 134.461 174.37Z" fill="#137AC9"/>
<path d="M98.7402 184.522C100.048 182.777 101.358 181.035 102.665 179.29C104.568 180.634 106.48 181.969 108.38 183.321C107.079 185.063 105.771 186.799 104.467 188.538C102.552 187.207 100.652 185.857 98.7402 184.522Z" fill="#137AC9"/>
<path d="M167.621 183.322C169.536 181.994 171.43 180.638 173.342 179.306C174.652 181.039 175.95 182.784 177.261 184.52C175.364 185.879 173.446 187.208 171.546 188.555C170.239 186.809 168.925 185.067 167.621 183.322Z" fill="#137AC9"/>
<defs>
<filter id="filter0_d_0_11048" x="0" y="0" width="275" height="275" filterUnits="userSpaceOnUse" color-interpolation-filters="sRGB">
<feFlood flood-opacity="0" result="BackgroundImageFix"/>
<feColorMatrix in="SourceAlpha" type="matrix" values="0 0 0 0 0 0 0 0 0 0 0 0 0 0 0 0 0 0 127 0" result="hardAlpha"/>
<feOffset/>
<feGaussianBlur stdDeviation="12"/>
<feComposite in2="hardAlpha" operator="out"/>
<feColorMatrix type="matrix" values="0 0 0 0 0.0745098 0 0 0 0 0.478431 0 0 0 0 0.788235 0 0 0 0.09 0"/>
<feBlend mode="normal" in2="BackgroundImageFix" result="effect1_dropShadow_0_11048"/>
<feBlend mode="normal" in="SourceGraphic" in2="effect1_dropShadow_0_11048" result="shape"/>
</filter>
</defs>
</svg>
