<svg width="20" height="20" viewBox="0 0 20 20" fill="none" xmlns="http://www.w3.org/2000/svg">
<g clip-path="url(#clip0_0_1034)">
<path d="M9.37504 19.9995C9.00004 19.9474 8.62504 19.911 8.25525 19.8433C5.45317 19.3224 3.25004 17.8641 1.6615 15.5099C0.552128 13.8641 0.01567 12.0308 4.49808e-05 10.0464C-0.00516335 9.52555 0.442753 9.1818 0.916712 9.33805C1.20838 9.43701 1.39588 9.69222 1.39588 10.0464C1.40109 10.8849 1.51046 11.7131 1.76567 12.5047C2.6615 15.2443 4.44796 17.1558 7.1615 18.1141C10.7448 19.3745 14.5625 18.2026 16.8594 15.1766C18.2761 13.312 18.8282 11.1922 18.5157 8.87451C18.0417 5.35368 15.5521 2.52555 12.1303 1.6766C9.19275 0.94743 6.55213 1.6193 4.25525 3.59326C4.224 3.6193 4.17713 3.63493 4.14067 3.65576C4.15109 3.6766 4.16671 3.69743 4.17713 3.71826C4.39067 3.71826 4.599 3.71826 4.81254 3.71826C5.26567 3.72347 5.58338 4.02035 5.57817 4.4266C5.57296 4.82764 5.26046 5.1141 4.81254 5.1141C4.07817 5.1141 3.34379 5.1141 2.60421 5.1141C2.14588 5.1141 1.85942 4.83805 1.85942 4.37451C1.85421 3.62451 1.85421 2.87972 1.85942 2.12972C1.86463 1.69222 2.15109 1.40055 2.55734 1.40055C2.96359 1.40055 3.24484 1.69743 3.25004 2.13493C3.25004 2.27555 3.25004 2.42139 3.25004 2.60889C3.32296 2.5516 3.36984 2.52035 3.4115 2.47868C4.92192 1.16097 6.67192 0.343262 8.6615 0.0932617C11.448 -0.260904 13.974 0.416178 16.1823 2.15576C18.2084 3.75472 19.4271 5.84847 19.8698 8.39014C19.9271 8.71305 19.9532 9.04639 19.9948 9.37451C19.9948 9.79118 19.9948 10.2078 19.9948 10.6245C19.9844 10.6766 19.9688 10.7235 19.9636 10.7756C19.8855 11.8433 19.6563 12.8745 19.2188 13.8485C17.7553 17.1349 15.2605 19.1506 11.724 19.8485C11.3594 19.9162 10.9896 19.9474 10.625 19.9995C10.2084 19.9995 9.79171 19.9995 9.37504 19.9995Z" fill="black"/>
<path d="M16.2813 9.83794C16.349 13.1817 13.8386 15.9421 10.599 16.2494C7.06774 16.5827 4.07295 13.9681 3.75004 10.6088C3.41149 7.05669 6.04691 4.0671 9.40108 3.7494C12.9532 3.41085 16.1563 6.1244 16.2813 9.83794ZM9.28129 5.1869C7.02608 5.44731 5.34899 7.46815 5.19795 9.28585C5.76566 9.34315 6.03649 9.56711 6.05212 9.97856C6.06774 10.39 5.82295 10.6036 5.18754 10.7234C5.44274 12.7859 7.20316 14.5619 9.28129 14.8171C9.39066 14.1973 9.599 13.9369 10.0052 13.9577C10.1511 13.9681 10.3125 14.0306 10.4375 14.114C10.6823 14.2806 10.7188 14.5515 10.7084 14.8223C12.9584 14.5254 14.6042 12.6244 14.8177 10.7181C14.2188 10.6244 13.9636 10.4317 13.9636 10.0306C13.9636 9.88481 14.0209 9.72335 14.0938 9.59315C14.2552 9.32752 14.5365 9.28585 14.823 9.29106C14.5 6.91606 12.474 5.35356 10.7136 5.1869C10.6407 5.77023 10.4167 6.04106 10.0052 6.04106C9.59379 6.05148 9.37504 5.79627 9.28129 5.1869Z" fill="black"/>
<path d="M8.82324 10.6975C8.45866 10.6975 8.09408 10.6975 7.72949 10.6975C7.28678 10.6923 6.97949 10.4058 6.97949 9.99959C6.97949 9.59334 7.28678 9.30168 7.72949 9.29647C8.33366 9.29126 8.93783 9.30168 9.54199 9.29126C9.64095 9.29126 9.75553 9.23918 9.82324 9.17147C10.1722 8.83814 10.5055 8.49439 10.8493 8.15584C11.1722 7.83293 11.5993 7.8173 11.891 8.11418C12.1722 8.40584 12.1566 8.82251 11.8389 9.14022C11.4014 9.57772 10.9639 10.0152 10.5316 10.4527C10.3649 10.6194 10.1722 10.6975 9.93783 10.6975C9.56803 10.6975 9.19303 10.6975 8.82324 10.6975Z" fill="black"/>
</g>
<defs>
<clipPath id="clip0_0_1034">
<rect width="20" height="20" fill="white" transform="matrix(0 -1 1 0 0 19.9995)"/>
</clipPath>
</defs>
</svg>
