<svg width="70" height="70" viewBox="0 0 70 70" fill="none" xmlns="http://www.w3.org/2000/svg">
<mask id="path-1-inside-1_244_20485" fill="white">
<path d="M3.76207 37.9762C1.77148 38.1659 0.292621 39.9395 0.686799 41.8998C2.01001 48.4806 5.20456 54.5697 9.92257 59.4156C15.4859 65.1298 22.8339 68.7726 30.7499 69.741C38.666 70.7094 46.6754 68.9453 53.4522 64.7408C60.2289 60.5363 65.3665 54.1436 68.0145 46.6209C70.6624 39.0982 70.6618 30.8968 68.0129 23.3745C65.3639 15.8522 60.2254 9.46018 53.4481 5.25661C46.6707 1.05304 38.6611 -0.709922 30.7451 0.259589C24.032 1.08179 17.7277 3.82736 12.5742 8.12835C11.039 9.40959 11.0808 11.7185 12.5137 13.1132C13.9466 14.5079 16.2262 14.4551 17.7954 13.2157C21.7713 10.0757 26.5511 8.06859 31.6254 7.44711C37.9036 6.67818 44.2562 8.0764 49.6313 11.4103C55.0064 14.7442 59.0818 19.8138 61.1828 25.7798C63.2837 31.7458 63.2841 38.2503 61.184 44.2166C59.0839 50.1829 55.0092 55.2531 49.6346 58.5877C44.2599 61.9223 37.9075 63.3214 31.6292 62.5534C25.3509 61.7853 19.5232 58.8961 15.1109 54.3642C11.5446 50.7013 9.07589 46.1428 7.94349 41.2046C7.49655 39.2556 5.75267 37.7865 3.76207 37.9762Z"/>
</mask>
<path d="M3.76207 37.9762C1.77148 38.1659 0.292621 39.9395 0.686799 41.8998C2.01001 48.4806 5.20456 54.5697 9.92257 59.4156C15.4859 65.1298 22.8339 68.7726 30.7499 69.741C38.666 70.7094 46.6754 68.9453 53.4522 64.7408C60.2289 60.5363 65.3665 54.1436 68.0145 46.6209C70.6624 39.0982 70.6618 30.8968 68.0129 23.3745C65.3639 15.8522 60.2254 9.46018 53.4481 5.25661C46.6707 1.05304 38.6611 -0.709922 30.7451 0.259589C24.032 1.08179 17.7277 3.82736 12.5742 8.12835C11.039 9.40959 11.0808 11.7185 12.5137 13.1132C13.9466 14.5079 16.2262 14.4551 17.7954 13.2157C21.7713 10.0757 26.5511 8.06859 31.6254 7.44711C37.9036 6.67818 44.2562 8.0764 49.6313 11.4103C55.0064 14.7442 59.0818 19.8138 61.1828 25.7798C63.2837 31.7458 63.2841 38.2503 61.184 44.2166C59.0839 50.1829 55.0092 55.2531 49.6346 58.5877C44.2599 61.9223 37.9075 63.3214 31.6292 62.5534C25.3509 61.7853 19.5232 58.8961 15.1109 54.3642C11.5446 50.7013 9.07589 46.1428 7.94349 41.2046C7.49655 39.2556 5.75267 37.7865 3.76207 37.9762Z" stroke="#D15E14" stroke-width="20" mask="url(#path-1-inside-1_244_20485)"/>
</svg>
