<svg width="24" height="25" viewBox="0 0 24 25" fill="none" xmlns="http://www.w3.org/2000/svg">
<path d="M11.293 0.000275259C11.7644 0.000275259 12.2357 -0.000344074 12.7071 0.000275259C12.7071 0.449291 12.7071 0.897688 12.7071 1.34608C12.2357 1.34732 11.7644 1.3467 11.293 1.3467C11.293 0.897688 11.293 0.448672 11.293 0.000275259Z" fill="black"/>
<path d="M4.14648 2.80511C4.52949 2.52827 4.90942 2.24709 5.29059 1.96777C6.24564 3.295 7.20192 4.62223 8.15759 5.94946C7.77766 6.23064 7.39588 6.51058 7.01349 6.78866C6.05844 5.46019 5.10093 4.1342 4.14648 2.80511Z" fill="black"/>
<path d="M18.71 1.96729C19.0906 2.24846 19.4736 2.5253 19.8529 2.80772C18.8966 4.13495 17.9416 5.46218 16.9859 6.78941C16.6047 6.50885 16.2248 6.22829 15.8418 5.95145C16.7969 4.62298 17.7544 3.29575 18.71 1.96729Z" fill="black"/>
<path d="M11.3615 4.1787C11.5039 3.86098 11.8924 3.69005 12.219 3.80586C12.4172 3.86903 12.5744 4.02634 12.6578 4.21648C13.376 5.68677 14.0959 7.15707 14.8147 8.62736C16.4339 8.86147 18.0524 9.09868 19.671 9.33898C19.9631 9.3718 20.2203 9.60343 20.2792 9.89514C20.3388 10.1478 20.2406 10.4191 20.0521 10.5906C18.8872 11.7376 17.7204 12.8834 16.5548 14.0304C16.831 15.6661 17.1127 17.3011 17.3871 18.9368C17.4601 19.3189 17.1661 19.7171 16.7831 19.7574C16.5542 19.797 16.3442 19.6806 16.1527 19.5716C14.768 18.8389 13.3864 18.0994 12.0005 17.3699C10.5329 18.1471 9.0684 18.9306 7.59776 19.7004C7.14111 19.937 6.5445 19.5152 6.60588 19.003C6.87411 17.3432 7.16811 15.6878 7.44493 14.0298C6.27873 12.8822 5.11254 11.7333 3.94511 10.5869C3.75729 10.4172 3.6597 10.146 3.71985 9.89576C3.77816 9.60653 4.03165 9.37242 4.32259 9.34207C5.9436 9.10177 7.56523 8.87014 9.18502 8.62613C9.91113 7.14406 10.6348 5.66014 11.3615 4.1787ZM11.9999 6.09553C11.464 7.19299 10.927 8.28921 10.3911 9.38667C10.307 9.55884 10.2291 9.74835 10.0652 9.85922C9.89824 9.9868 9.68219 9.99423 9.48393 10.0258C8.29932 10.1998 7.11471 10.3739 5.92949 10.5461C6.825 11.4255 7.71807 12.3068 8.61358 13.1856C8.82227 13.3603 8.95669 13.6359 8.89899 13.9121C8.68355 15.1904 8.46382 16.4681 8.24838 17.7464C9.38696 17.1463 10.5237 16.5412 11.661 15.938C11.882 15.8104 12.1625 15.8283 12.3786 15.9572C13.5036 16.553 14.6281 17.1488 15.7513 17.7477C15.5347 16.4681 15.3155 15.1898 15.1001 13.9103C15.0534 13.6712 15.1412 13.4154 15.3198 13.2519C16.2368 12.3508 17.1538 11.449 18.0702 10.5473C16.8077 10.359 15.5451 10.1757 14.2819 9.99113C14.0413 9.96574 13.8167 9.81648 13.7123 9.59414C13.1397 8.42918 12.5707 7.26174 11.9999 6.09553Z" fill="black"/>
<path d="M0.000976562 9.31558C0.145831 8.86285 0.291912 8.41012 0.437993 7.95801C0.860893 8.09488 1.28441 8.23299 1.70608 8.3742C1.56 8.82569 1.41576 9.27781 1.26906 9.7293C0.845549 9.59243 0.42449 9.44998 0.000976562 9.31558Z" fill="black"/>
<path d="M22.2949 8.3754C22.7184 8.23915 23.1407 8.0998 23.563 7.96045C23.7097 8.41194 23.8539 8.86467 24 9.31617C23.5784 9.45799 23.1548 9.59549 22.7313 9.73298C22.5859 9.28025 22.4398 8.82813 22.2949 8.3754Z" fill="black"/>
<path d="M0 15.685C1.54736 15.1815 3.09288 14.6711 4.63962 14.1658C4.78571 14.6173 4.93056 15.0688 5.07603 15.5209C3.53112 16.0312 1.98376 16.5366 0.437017 17.0426C0.290936 16.5898 0.144854 16.1377 0 15.685Z" fill="black"/>
<path d="M19.3599 14.1602C20.9066 14.6668 22.4546 15.1709 23.9995 15.6831C23.8528 16.134 23.7086 16.5867 23.5625 17.0382C22.0163 16.5291 20.4696 16.0237 18.9229 15.5171C19.0683 15.0644 19.2138 14.6123 19.3599 14.1602Z" fill="black"/>
<path d="M11.293 20.0771C11.7644 20.0765 12.2357 20.0765 12.7071 20.0771C12.7071 21.7177 12.7071 23.3583 12.7071 24.999C12.2357 25.0002 11.7644 25.0002 11.293 24.9996C11.293 23.3583 11.293 21.7177 11.293 20.0771Z" fill="black"/>
<path d="M4.14844 22.1921C4.40991 21.8285 4.672 21.4656 4.93347 21.1021C5.31402 21.382 5.69641 21.6601 6.07635 21.9419C5.8161 22.3048 5.55463 22.6665 5.29377 23.0288C4.91076 22.7513 4.53083 22.4702 4.14844 22.1921Z" fill="black"/>
<path d="M17.9248 21.9417C18.3078 21.6649 18.6865 21.3824 19.0689 21.105C19.331 21.4661 19.5906 21.8296 19.8527 22.1913C19.4734 22.4743 19.0898 22.7512 18.7098 23.0317C18.4484 22.6682 18.1857 22.3052 17.9248 21.9417Z" fill="black"/>
</svg>
