<svg width="26" height="48" viewBox="0 0 26 48" fill="none" xmlns="http://www.w3.org/2000/svg">
<g opacity="0.3" clip-path="url(#clip0_244_15408)">
<path d="M13.047 8.56918C13.3409 8.11691 13.3906 7.58827 13.5236 7.10306C14.0996 4.9885 14.6566 2.86944 15.1961 0.744394C15.3262 0.230729 15.5543 -0.00139377 16.0996 0.00160136C19.1932 0.0210697 22.2882 0.0240649 25.3818 0.000103797C26.0543 -0.00588647 26.0748 0.247202 25.9227 0.811785C24.5645 5.86158 23.2414 10.9219 21.8759 15.9702C21.6961 16.6336 21.7297 17.0259 22.4885 17.0739C22.5353 17.0769 22.5821 17.1008 22.6274 17.1188C23.5441 17.5052 23.9037 18.5969 23.6464 20.2038C23.4856 21.2071 22.9183 21.7268 21.892 21.7508C20.8452 21.7747 19.797 21.7582 18.7487 21.7582C17.5675 21.7597 17.5675 21.7597 17.566 23.0057C17.566 23.6047 17.6055 24.2068 17.5558 24.8013C17.5031 25.4378 17.7385 25.7972 18.2926 26.0892C20.6566 27.3307 22.3277 29.2491 23.4359 31.7126C26.335 38.1596 22.4213 46.1431 15.6566 47.6976C9.22682 49.1757 3.36279 45.0993 1.96805 39.1091C0.745828 33.8616 3.01045 28.7055 7.65372 26.1311C8.24583 25.8032 8.51922 25.4363 8.46366 24.7369C8.40518 23.9926 8.43004 23.2393 8.45635 22.4921C8.47682 21.9335 8.24144 21.7433 7.71659 21.7538C6.57185 21.7747 5.42711 21.7687 4.28091 21.7553C3.00606 21.7418 2.39495 21.1353 2.34524 19.8414C2.32916 19.419 2.32039 18.9892 2.3701 18.5714C2.46513 17.7807 2.86863 17.1877 3.66249 17.0529C4.28384 16.9466 4.32185 16.6575 4.17858 16.1274C3.12156 12.2053 2.08062 8.28314 1.03676 4.35952C0.70343 3.10905 0.390565 1.8511 0.0440738 0.603623C-0.0787332 0.160343 0.0513837 0.00759163 0.481208 0.0090892C3.67419 0.0150795 6.86571 0.0210697 10.0572 0.00759163C10.6245 0.0045965 10.7224 0.381983 10.835 0.80879C11.4564 3.16895 12.085 5.52762 12.7137 7.88479C12.7751 8.11542 12.7663 8.38348 13.047 8.56918ZM13.0221 46.3019C17.9958 46.4381 22.7049 42.212 22.7692 36.385C22.8292 30.8994 18.3847 26.4037 12.9987 26.4067C7.65226 26.4097 3.2122 30.8919 3.25021 36.3356C3.29115 42.1866 8.01483 46.4516 13.0221 46.3019ZM13.066 18.6343C10.2911 18.6343 7.51629 18.6448 4.74144 18.6253C4.18881 18.6223 3.95928 18.7916 3.95928 19.3936C3.95928 20.0675 4.33355 20.087 4.81308 20.0855C8.95197 20.0795 13.0894 20.0825 17.2283 20.0825C18.5909 20.0825 19.9549 20.0675 21.3175 20.0885C21.8394 20.0959 22.0514 19.9192 22.0616 19.3576C22.0733 18.7167 21.7604 18.6253 21.2444 18.6268C18.5178 18.6403 15.7911 18.6328 13.066 18.6343ZM5.83793 1.68786C5.09817 1.65192 5.03238 1.75974 5.23998 2.53249C6.42565 6.9563 7.6084 11.3816 8.79261 15.8054C8.86279 16.069 8.9315 16.3371 9.03384 16.5886C9.23998 17.0858 9.67711 16.9915 10.0426 16.9106C10.4827 16.8133 10.2999 16.4584 10.2268 16.1798C9.92711 15.0492 9.6201 13.92 9.32039 12.7893C8.39787 9.32695 7.47536 5.86308 6.56162 2.39921C6.44904 1.97839 6.31454 1.62946 5.83793 1.68786ZM16.3613 16.9481C16.9637 17.0199 17.0368 16.5198 17.1523 16.0945C17.6873 14.1252 18.2107 12.1514 18.7371 10.1806C19.4183 7.6317 20.1025 5.08284 20.7721 2.53099C20.8438 2.25843 21.1332 1.90052 20.6566 1.70883C20.1259 1.49468 19.6362 1.75375 19.4812 2.33182C18.24 6.97128 17.0104 11.6152 15.7619 16.2532C15.6069 16.8342 15.8452 16.978 16.3613 16.9481ZM13.259 16.9451C13.7765 17.0259 13.971 16.7249 14.0967 16.2487C15.3145 11.6272 16.5382 7.00722 17.7853 2.39322C17.9593 1.74776 17.7093 1.6639 17.1903 1.68037C16.7809 1.69385 16.5602 1.88704 16.468 2.27491C16.3862 2.61336 16.3058 2.9533 16.2166 3.28876C15.066 7.59426 13.9154 11.8983 12.7619 16.2038C12.642 16.656 12.6157 17.0259 13.259 16.9451ZM6.68881 16.9406C7.24729 17.0589 7.37156 16.8223 7.21366 16.2397C6.36863 13.1158 5.55138 9.98438 4.72243 6.85596C4.31308 5.31646 3.8891 3.78146 3.4929 2.23747C3.33647 1.62946 2.89641 1.63545 2.45635 1.70883C1.86863 1.80767 2.16249 2.25095 2.23706 2.53399C3.44612 7.13301 4.67273 11.7261 5.88764 16.3236C5.99729 16.7369 6.18588 17.005 6.68881 16.9406ZM19.3145 16.9451C19.7985 17.017 20.0294 16.7684 20.1376 16.3086C20.3335 15.4849 20.5485 14.6658 20.7663 13.8481C21.7736 10.0712 22.7882 6.29737 23.7897 2.51901C23.854 2.2779 24.0601 1.96341 23.7546 1.76873C23.5031 1.60699 23.1844 1.65192 22.9008 1.74028C22.5938 1.83462 22.5616 2.13563 22.4914 2.39771C22.1069 3.84136 21.7224 5.28352 21.3394 6.72717C20.4958 9.90351 19.661 13.0813 18.8043 16.2532C18.661 16.7773 18.7356 17.0349 19.3145 16.9451ZM15.933 23.4176C15.933 23.0941 15.9242 22.7706 15.9344 22.4471C15.9505 21.9889 15.7707 21.7538 15.2955 21.7568C13.7648 21.7672 12.2327 21.7642 10.702 21.7597C10.2751 21.7582 10.0806 21.9589 10.085 22.3947C10.0923 23.0177 10.1026 23.6407 10.0792 24.2622C10.0543 24.9166 10.3072 25.1023 10.9227 24.9316C12.0675 24.6156 13.2429 24.6605 14.4008 24.7923C15.9403 24.9675 15.9359 25.005 15.933 23.4176ZM11.4096 14.3318C11.7868 13.288 12.3028 12.3445 11.9198 11.1705C11.3891 9.5411 11.028 7.85334 10.5923 6.19254C10.2575 4.91661 9.89641 3.64668 9.58647 2.36326C9.43004 1.71332 9.00606 1.5995 8.48413 1.70284C7.82185 1.83462 8.23852 2.30336 8.31161 2.58341C8.98705 5.21164 9.69319 7.83238 10.3891 10.4546C10.7312 11.747 11.0689 13.0394 11.4096 14.3318Z" fill="#D15E14"/>
<path d="M4.65432 36.3354C4.66455 31.6929 8.44379 27.7274 12.9876 27.7858C17.935 27.8487 21.3692 31.9176 21.3648 36.3668C21.3605 41.0647 17.5607 44.9689 12.9935 44.9599C8.42478 44.9509 4.64408 41.0408 4.65432 36.3354ZM19.7157 36.3489C19.7128 32.572 16.7157 29.3912 13.0359 29.4541C9.00227 29.523 6.29321 32.7218 6.30198 36.3698C6.31075 40.1407 9.32683 43.2676 12.9833 43.2826C16.666 43.2976 19.7186 40.1542 19.7157 36.3489Z" fill="#D15E14"/>
</g>
<defs>
<clipPath id="clip0_244_15408">
<rect width="26" height="48" fill="white"/>
</clipPath>
</defs>
</svg>
