<svg width="48" height="48" viewBox="0 0 48 48" fill="none" xmlns="http://www.w3.org/2000/svg">
<path d="M43.3226 8.93256H35.2051V7.4004H36.7531C37.0382 7.4004 37.3117 7.28712 37.5134 7.08548C37.715 6.88384 37.8283 6.61036 37.8283 6.3252C37.8283 6.04004 37.715 5.76656 37.5134 5.56492C37.3117 5.36328 37.0382 5.25 36.7531 5.25H11.2396C10.9545 5.25 10.681 5.36328 10.4794 5.56492C10.2777 5.76656 10.1644 6.04004 10.1644 6.3252C10.1644 6.61036 10.2777 6.88384 10.4794 7.08548C10.681 7.28712 10.9545 7.4004 11.2396 7.4004H12.7876V8.93256H4.67709C4.39169 8.93259 4.11795 9.04584 3.91595 9.24746C3.71395 9.44908 3.60018 9.7226 3.59961 10.008C3.60132 10.9131 3.84848 11.8007 4.31475 12.5765C4.78102 13.3522 5.44895 13.9869 6.24741 14.4131C6.33114 15.2314 6.61428 16.0168 7.07203 16.7003C7.52978 17.3838 8.14817 17.9446 8.87301 18.3336C8.98025 19.4324 9.44956 20.4643 10.2072 21.2673C10.9648 22.0703 11.9677 22.5988 13.0584 22.7698C13.5171 25.2069 14.5094 27.5124 15.9641 29.521C17.4188 31.5295 19.2998 33.1913 21.4724 34.3872C21.3244 35.3755 20.826 36.2776 20.0682 36.929C19.3104 37.5804 18.3437 37.9377 17.3444 37.9356H16.0836C15.0908 37.9361 14.1386 38.3299 13.4354 39.0307C12.7322 39.7315 12.3351 40.6823 12.3312 41.675C12.3318 41.9603 12.4456 42.2337 12.6476 42.4352C12.8496 42.6367 13.1233 42.7498 13.4086 42.7496H34.5826C34.868 42.7498 35.1418 42.6367 35.3439 42.4353C35.546 42.2338 35.66 41.9604 35.6607 41.675C35.6571 40.6822 35.2602 39.7312 34.5569 39.0303C33.8536 38.3294 32.9012 37.9358 31.9083 37.9356H30.6313C29.6324 37.9371 28.6661 37.5795 27.9088 36.9282C27.1514 36.2769 26.6532 35.3751 26.5051 34.3872C28.6778 33.1913 30.559 31.5295 32.0139 29.521C33.4688 27.5125 34.4613 25.207 34.9203 22.7698C36.0108 22.5985 37.0135 22.0699 37.7709 21.2669C38.5284 20.464 38.9977 19.4322 39.1051 18.3336C39.8302 17.9444 40.4487 17.3832 40.9063 16.6992C41.364 16.0153 41.6468 15.2295 41.7301 14.4108C42.532 13.988 43.204 13.3552 43.6742 12.5801C44.1444 11.805 44.3951 10.9167 44.3996 10.0102V10.008C44.3992 9.72263 44.2855 9.44909 44.0836 9.24745C43.8817 9.04581 43.608 8.93256 43.3226 8.93256ZM14.9082 40.6183C15.0585 40.4555 15.2412 40.3257 15.4445 40.2374C15.6477 40.149 15.8672 40.1039 16.0888 40.1051H24.582C24.8671 40.1051 25.1406 39.9918 25.3422 39.7902C25.5439 39.5885 25.6572 39.315 25.6572 39.0299C25.6572 38.7447 25.5439 38.4712 25.3422 38.2696C25.1406 38.068 24.8671 37.9547 24.582 37.9547H22.124C22.7864 37.2038 23.2596 36.3054 23.504 35.3344C23.5456 35.3508 23.588 35.366 23.6294 35.3824L24.0068 35.4374L24.0208 35.4362C24.0542 35.4388 24.0878 35.438 24.121 35.4338L24.383 35.3822C24.4252 35.3658 24.467 35.3506 24.5096 35.3342C24.8598 36.6945 25.6511 37.9003 26.7595 38.7631C27.8679 39.6258 29.231 40.0969 30.6356 40.1026L31.9035 40.105C32.1239 40.1056 32.3419 40.1515 32.5439 40.2398C32.7458 40.3281 32.9275 40.4569 33.0777 40.6182L14.9082 40.6183ZM24.6687 32.932L24.0031 33.2155L23.3996 32.964C22.9704 32.765 22.5589 32.5396 22.1559 32.3027C22.2228 32.2531 22.2772 32.1887 22.3151 32.1146C22.3529 32.0405 22.3731 31.9586 22.3741 31.8754C22.3741 31.7295 22.3162 31.5896 22.213 31.4864C22.1099 31.3833 21.97 31.3253 21.8241 31.3253C21.7003 31.3264 21.5805 31.3698 21.4848 31.4484C21.3891 31.527 21.3231 31.636 21.2979 31.7573C20.5803 31.2661 19.9082 30.7116 19.2895 30.1006C19.3837 30.1789 19.5017 30.2228 19.6242 30.2251C19.7329 30.2251 19.8392 30.1928 19.9297 30.1324C20.0201 30.0719 20.0906 29.9861 20.1322 29.8856C20.1738 29.7851 20.1847 29.6745 20.1634 29.5678C20.1422 29.4612 20.0898 29.3632 20.0129 29.2863C19.936 29.2094 19.838 29.157 19.7314 29.1358C19.6247 29.1145 19.5141 29.1254 19.4136 29.167C19.3132 29.2086 19.2273 29.2791 19.1668 29.3695C19.1064 29.46 19.0741 29.5663 19.0741 29.675C19.0759 29.8037 19.1235 29.9275 19.2084 30.0242C18.5924 29.4014 18.0335 28.7247 17.5382 28.0021C17.6603 27.9777 17.7704 27.912 17.8497 27.8161C17.9291 27.7201 17.9731 27.5997 17.9742 27.4752C17.9742 27.403 17.9599 27.3315 17.9323 27.2647C17.9047 27.198 17.8642 27.1374 17.8131 27.0863C17.762 27.0353 17.7014 26.9947 17.6347 26.9671C17.5679 26.9395 17.4964 26.9252 17.4242 26.9252C17.3397 26.9262 17.2565 26.947 17.1815 26.986C17.1065 27.025 17.0416 27.081 16.9922 27.1496C16.3226 26.0205 15.8086 24.8061 15.464 23.5394C15.5759 23.4856 15.6661 23.3954 15.7198 23.2835C15.7736 23.1716 15.7876 23.0448 15.7597 22.9238C15.7318 22.8029 15.6635 22.6951 15.5662 22.6181C15.4688 22.5411 15.3481 22.4995 15.224 22.5002C15.1514 22.1255 15.0934 21.7472 15.051 21.3652C15.1064 21.3863 15.1649 21.3981 15.2241 21.4001C15.37 21.4001 15.5099 21.3421 15.6131 21.239C15.7162 21.1358 15.7741 20.9959 15.7741 20.8501C15.7741 20.7042 15.7162 20.5643 15.6131 20.4611C15.5099 20.358 15.37 20.3 15.2241 20.3C15.1369 20.3017 15.0514 20.3247 14.975 20.3669C14.9676 20.1869 14.9539 20.0069 14.9533 19.8252V19.1185C15.0348 19.1696 15.1286 19.1977 15.2247 19.2C15.3706 19.2 15.5105 19.1421 15.6136 19.0389C15.7167 18.9358 15.7747 18.7959 15.7747 18.65C15.7747 18.5042 15.7167 18.3643 15.6136 18.2612C15.5105 18.158 15.3706 18.1001 15.2247 18.1001C15.1288 18.1025 15.0352 18.1306 14.9539 18.1816V16.9184C15.0352 16.9694 15.1288 16.9976 15.2247 16.9999C15.3706 16.9999 15.5105 16.942 15.6137 16.8388C15.7168 16.7357 15.7747 16.5958 15.7747 16.4499C15.7747 16.304 15.7168 16.1641 15.6137 16.061C15.5105 15.9578 15.3706 15.8999 15.2247 15.8999C15.1288 15.9023 15.0352 15.9304 14.9539 15.9814V14.7185C15.0352 14.7694 15.1288 14.7976 15.2247 14.8C15.3706 14.8 15.5105 14.742 15.6136 14.6389C15.7167 14.5357 15.7747 14.3959 15.7747 14.25C15.7747 14.1041 15.7167 13.9643 15.6136 13.8611C15.5105 13.758 15.3706 13.7 15.2247 13.7C15.1288 13.7024 15.0352 13.7306 14.9539 13.7815V12.5184C15.0352 12.5694 15.1288 12.5975 15.2247 12.5999C15.3706 12.5999 15.5105 12.5419 15.6137 12.4388C15.7168 12.3356 15.7747 12.1957 15.7747 12.0499C15.7747 11.904 15.7168 11.7641 15.6137 11.6609C15.5105 11.5578 15.3706 11.4998 15.2247 11.4998C15.1288 11.5022 15.0352 11.5304 14.9539 11.5813V10.3184C15.0352 10.3694 15.1288 10.3975 15.2247 10.3999C15.3706 10.3999 15.5105 10.342 15.6136 10.2388C15.7167 10.1357 15.7747 9.99582 15.7747 9.84996C15.7747 9.7041 15.7167 9.56422 15.6136 9.46108C15.5105 9.35794 15.3706 9.3 15.2247 9.3C15.1288 9.30239 15.0352 9.33054 14.9539 9.38148V8.0934C15.0352 8.14437 15.1288 8.17251 15.2247 8.17488C15.3161 8.17526 15.4062 8.15276 15.4867 8.10942C15.5672 8.06608 15.6355 8.00328 15.6855 7.92675C15.7355 7.85022 15.7656 7.76239 15.7729 7.67127C15.7803 7.58015 15.7647 7.48864 15.7276 7.40508H16.9218C16.8847 7.4888 16.8692 7.58045 16.8765 7.67171C16.8838 7.76297 16.9138 7.85095 16.9638 7.92768C17.0137 8.00441 17.0821 8.06745 17.1625 8.11109C17.243 8.15473 17.3331 8.17759 17.4247 8.17759C17.5162 8.17759 17.6063 8.15473 17.6868 8.11109C17.7673 8.06745 17.8356 8.00441 17.8856 7.92768C17.9355 7.85095 17.9655 7.76297 17.9729 7.67171C17.9802 7.58045 17.9647 7.4888 17.9276 7.40508H19.1217C19.0847 7.4888 19.0691 7.58045 19.0765 7.67171C19.0838 7.76297 19.1138 7.85095 19.1638 7.92768C19.2137 8.00441 19.282 8.06745 19.3625 8.11109C19.443 8.15473 19.5331 8.17759 19.6246 8.17759C19.7162 8.17759 19.8063 8.15473 19.8868 8.11109C19.9673 8.06745 20.0356 8.00441 20.0855 7.92768C20.1355 7.85095 20.1655 7.76297 20.1728 7.67171C20.1802 7.58045 20.1646 7.4888 20.1276 7.40508H21.3217C21.2846 7.4888 21.2691 7.58045 21.2764 7.67171C21.2838 7.76297 21.3138 7.85095 21.3637 7.92768C21.4137 8.00441 21.482 8.06745 21.5625 8.11109C21.643 8.15473 21.7331 8.17759 21.8246 8.17759C21.9162 8.17759 22.0063 8.15473 22.0868 8.11109C22.1672 8.06745 22.2356 8.00441 22.2855 7.92768C22.3355 7.85095 22.3655 7.76297 22.3728 7.67171C22.3801 7.58045 22.3646 7.4888 22.3275 7.40508H23.5216C23.4846 7.4888 23.469 7.58045 23.4764 7.67171C23.4837 7.76297 23.5137 7.85095 23.5637 7.92768C23.6136 8.00441 23.6819 8.06745 23.7624 8.11109C23.8429 8.15473 23.933 8.17759 24.0246 8.17759C24.1161 8.17759 24.2062 8.15473 24.2867 8.11109C24.3672 8.06745 24.4355 8.00441 24.4855 7.92768C24.5354 7.85095 24.5654 7.76297 24.5728 7.67171C24.5801 7.58045 24.5645 7.4888 24.5275 7.40508H33.0595V19.8228C33.0411 22.5772 32.2433 25.27 30.7584 27.5899C29.2736 29.9098 27.1622 31.7618 24.6687 32.932ZM8.61753 12.8578C8.04963 12.8558 7.49491 12.6864 7.02284 12.3707C6.55076 12.055 6.18231 11.6071 5.96361 11.083H12.7898V12.8578H8.61753ZM12.787 15.0082V16.783H11.2408C10.6737 16.7801 10.12 16.6102 9.64876 16.2946C9.17755 15.979 8.80974 15.5315 8.59125 15.0082H12.787ZM12.7846 18.9334V19.8205C12.7846 20.0467 12.7897 20.2723 12.7999 20.4973C12.4456 20.3548 12.1233 20.1431 11.8517 19.8746C11.5802 19.6061 11.3649 19.2861 11.2184 18.9335L12.7846 18.9334ZM35.1909 20.4919C35.2003 20.2669 35.205 20.0407 35.205 19.8157V18.9286H36.7694C36.6234 19.2809 36.4086 19.6007 36.1376 19.8691C35.8666 20.1376 35.5447 20.3492 35.1909 20.4919ZM35.1956 16.783V15.0058L39.3944 15.0076C39.1757 15.5313 38.8076 15.9791 38.3359 16.2948C37.8642 16.6106 37.31 16.7804 36.7424 16.783H35.1956ZM35.198 12.8578V11.083H42.0301C41.8112 11.6061 41.4431 12.0532 40.9717 12.3685C40.5002 12.6837 39.9464 12.8531 39.3793 12.8555L35.198 12.8578ZM24.5746 29.6749C24.5746 29.7837 24.5424 29.89 24.482 29.9805C24.4215 30.0709 24.3356 30.1414 24.2351 30.183C24.1347 30.2246 24.0241 30.2355 23.9174 30.2143C23.8107 30.1931 23.7127 30.1407 23.6358 30.0638C23.5589 29.9869 23.5065 29.8889 23.4853 29.7822C23.4641 29.6755 23.475 29.565 23.5166 29.4645C23.5582 29.364 23.6287 29.2781 23.7191 29.2176C23.8096 29.1572 23.9159 29.125 24.0247 29.125C24.1705 29.125 24.3104 29.1829 24.4136 29.286C24.5167 29.3892 24.5746 29.5291 24.5746 29.6749ZM24.5746 31.875C24.5746 31.9838 24.5424 32.0901 24.4819 32.1805C24.4215 32.2709 24.3356 32.3414 24.2351 32.383C24.1346 32.4246 24.024 32.4355 23.9173 32.4143C23.8106 32.393 23.7127 32.3406 23.6358 32.2637C23.5589 32.1868 23.5065 32.0888 23.4853 31.9821C23.4641 31.8754 23.475 31.7649 23.5166 31.6644C23.5582 31.5639 23.6287 31.478 23.7192 31.4176C23.8096 31.3572 23.9159 31.3249 24.0247 31.3249C24.0969 31.3249 24.1684 31.3391 24.2352 31.3668C24.3019 31.3944 24.3625 31.435 24.4136 31.486C24.4647 31.5371 24.5052 31.5978 24.5328 31.6645C24.5605 31.7312 24.5747 31.8028 24.5746 31.875ZM24.5746 27.475C24.5746 27.5837 24.5424 27.6901 24.482 27.7805C24.4215 27.8709 24.3356 27.9414 24.2351 27.9831C24.1347 28.0247 24.0241 28.0356 23.9174 28.0144C23.8107 27.9931 23.7127 27.9408 23.6358 27.8638C23.5589 27.7869 23.5065 27.6889 23.4853 27.5823C23.4641 27.4756 23.475 27.365 23.5166 27.2645C23.5582 27.164 23.6287 27.0781 23.7191 27.0177C23.8096 26.9573 23.9159 26.925 24.0247 26.925C24.1705 26.925 24.3104 26.9829 24.4136 27.0861C24.5167 27.1892 24.5746 27.3291 24.5746 27.475ZM24.5746 25.2749C24.5746 25.3837 24.5424 25.49 24.482 25.5804C24.4215 25.6709 24.3356 25.7414 24.2351 25.783C24.1347 25.8246 24.0241 25.8355 23.9174 25.8143C23.8107 25.7931 23.7127 25.7407 23.6358 25.6638C23.5589 25.5868 23.5065 25.4889 23.4853 25.3822C23.4641 25.2755 23.475 25.1649 23.5166 25.0644C23.5582 24.9639 23.6287 24.878 23.7191 24.8176C23.8096 24.7572 23.9159 24.7249 24.0247 24.7249C24.1705 24.7249 24.3104 24.7829 24.4136 24.886C24.5167 24.9891 24.5746 25.129 24.5746 25.2749ZM24.5746 23.05C24.5746 23.1587 24.5424 23.2651 24.482 23.3555C24.4215 23.4459 24.3356 23.5164 24.2351 23.5581C24.1347 23.5997 24.0241 23.6106 23.9174 23.5893C23.8107 23.5681 23.7127 23.5158 23.6358 23.4388C23.5589 23.3619 23.5065 23.2639 23.4853 23.1573C23.4641 23.0506 23.475 22.94 23.5166 22.8395C23.5582 22.739 23.6287 22.6531 23.7191 22.5927C23.8096 22.5323 23.9159 22.5 24.0247 22.5C24.1705 22.5 24.3104 22.5579 24.4136 22.6611C24.5167 22.7642 24.5746 22.9041 24.5746 23.05ZM24.5746 20.8499C24.5746 20.9587 24.5424 21.065 24.482 21.1554C24.4215 21.2459 24.3356 21.3163 24.2351 21.358C24.1347 21.3996 24.0241 21.4105 23.9174 21.3893C23.8107 21.3681 23.7127 21.3157 23.6358 21.2388C23.5589 21.1618 23.5065 21.0639 23.4853 20.9572C23.4641 20.8505 23.475 20.7399 23.5166 20.6394C23.5582 20.5389 23.6287 20.453 23.7191 20.3926C23.8096 20.3322 23.9159 20.2999 24.0247 20.2999C24.1705 20.2999 24.3104 20.3579 24.4136 20.461C24.5167 20.5641 24.5746 20.704 24.5746 20.8499ZM24.5746 18.6499C24.5746 18.7587 24.5424 18.865 24.482 18.9555C24.4215 19.0459 24.3356 19.1164 24.2351 19.158C24.1347 19.1996 24.0241 19.2105 23.9174 19.1893C23.8107 19.1681 23.7127 19.1157 23.6358 19.0388C23.5589 18.9619 23.5065 18.8639 23.4853 18.7572C23.4641 18.6505 23.475 18.54 23.5166 18.4395C23.5582 18.339 23.6287 18.2531 23.7191 18.1926C23.8096 18.1322 23.9159 18.1 24.0247 18.1C24.1705 18.1 24.3104 18.1579 24.4136 18.261C24.5167 18.3642 24.5746 18.5041 24.5746 18.6499ZM24.5746 14.2499C24.5746 14.3587 24.5424 14.465 24.482 14.5554C24.4215 14.6459 24.3356 14.7164 24.2351 14.758C24.1347 14.7996 24.0241 14.8105 23.9174 14.7893C23.8107 14.7681 23.7127 14.7157 23.6358 14.6388C23.5589 14.5618 23.5065 14.4639 23.4853 14.3572C23.4641 14.2505 23.475 14.1399 23.5166 14.0394C23.5582 13.9389 23.6287 13.853 23.7191 13.7926C23.8096 13.7322 23.9159 13.6999 24.0247 13.6999C24.1705 13.6999 24.3104 13.7579 24.4136 13.861C24.5167 13.9641 24.5746 14.104 24.5746 14.2499ZM24.5746 16.4498C24.5746 16.5586 24.5424 16.6649 24.482 16.7554C24.4215 16.8458 24.3356 16.9163 24.2351 16.9579C24.1347 16.9996 24.0241 17.0105 23.9174 16.9892C23.8107 16.968 23.7127 16.9156 23.6358 16.8387C23.5589 16.7618 23.5065 16.6638 23.4853 16.5571C23.4641 16.4504 23.475 16.3399 23.5166 16.2394C23.5582 16.1389 23.6287 16.053 23.7191 15.9926C23.8096 15.9321 23.9159 15.8999 24.0247 15.8999C24.0969 15.8999 24.1684 15.9141 24.2352 15.9418C24.3019 15.9694 24.3625 16.0099 24.4136 16.061C24.4647 16.1121 24.5052 16.1727 24.5328 16.2395C24.5605 16.3062 24.5747 16.3776 24.5746 16.4498ZM24.5746 12.0498C24.5746 12.1586 24.5424 12.2649 24.482 12.3553C24.4215 12.4458 24.3356 12.5163 24.2351 12.5579C24.1347 12.5995 24.0241 12.6104 23.9174 12.5892C23.8107 12.568 23.7127 12.5156 23.6358 12.4387C23.5589 12.3618 23.5065 12.2638 23.4853 12.1571C23.4641 12.0504 23.475 11.9398 23.5166 11.8393C23.5582 11.7388 23.6287 11.653 23.7191 11.5925C23.8096 11.5321 23.9159 11.4998 24.0247 11.4998C24.0969 11.4998 24.1684 11.5141 24.2352 11.5417C24.3019 11.5694 24.3625 11.6099 24.4136 11.661C24.4647 11.712 24.5052 11.7727 24.5328 11.8394C24.5605 11.9062 24.5747 11.9776 24.5746 12.0498ZM24.5746 9.84984C24.5746 9.95861 24.5424 10.0649 24.482 10.1554C24.4215 10.2458 24.3356 10.3163 24.2351 10.3579C24.1347 10.3996 24.0241 10.4105 23.9174 10.3892C23.8107 10.368 23.7127 10.3156 23.6358 10.2387C23.5589 10.1618 23.5065 10.0638 23.4853 9.95713C23.4641 9.85045 23.475 9.73987 23.5166 9.63938C23.5582 9.53889 23.6287 9.453 23.7191 9.39256C23.8096 9.33213 23.9159 9.29988 24.0247 9.29988C24.0969 9.29988 24.1684 9.31411 24.2352 9.34175C24.3019 9.3694 24.3625 9.40992 24.4136 9.461C24.4647 9.51208 24.5052 9.57272 24.5328 9.63946C24.5605 9.7062 24.5747 9.77761 24.5746 9.84984ZM22.3747 29.6749C22.3747 29.7837 22.3424 29.89 22.282 29.9805C22.2216 30.0709 22.1357 30.1414 22.0352 30.183C21.9347 30.2246 21.8241 30.2355 21.7174 30.2143C21.6108 30.1931 21.5128 30.1407 21.4358 30.0638C21.3589 29.9869 21.3066 29.8889 21.2853 29.7822C21.2641 29.6755 21.275 29.565 21.3166 29.4645C21.3583 29.364 21.4287 29.2781 21.5192 29.2176C21.6096 29.1572 21.716 29.125 21.8247 29.125C21.9706 29.125 22.1105 29.1829 22.2136 29.286C22.3167 29.3892 22.3747 29.5291 22.3747 29.6749ZM22.3747 27.475C22.3747 27.5837 22.3424 27.6901 22.282 27.7805C22.2216 27.8709 22.1357 27.9414 22.0352 27.9831C21.9347 28.0247 21.8241 28.0356 21.7174 28.0144C21.6108 27.9931 21.5128 27.9408 21.4358 27.8638C21.3589 27.7869 21.3066 27.6889 21.2853 27.5823C21.2641 27.4756 21.275 27.365 21.3166 27.2645C21.3583 27.164 21.4287 27.0781 21.5192 27.0177C21.6096 26.9573 21.716 26.925 21.8247 26.925C21.8969 26.925 21.9685 26.9392 22.0352 26.9669C22.1019 26.9945 22.1625 27.035 22.2136 27.0861C22.2647 27.1371 22.3052 27.1978 22.3328 27.2645C22.3605 27.3312 22.3747 27.4027 22.3747 27.475ZM22.3747 25.2749C22.3747 25.3837 22.3424 25.49 22.282 25.5804C22.2216 25.6709 22.1357 25.7414 22.0352 25.783C21.9347 25.8246 21.8241 25.8355 21.7174 25.8143C21.6108 25.7931 21.5128 25.7407 21.4358 25.6638C21.3589 25.5868 21.3066 25.4889 21.2853 25.3822C21.2641 25.2755 21.275 25.1649 21.3166 25.0644C21.3583 24.9639 21.4287 24.878 21.5192 24.8176C21.6096 24.7572 21.716 24.7249 21.8247 24.7249C21.8969 24.7249 21.9685 24.7391 22.0352 24.7668C22.1019 24.7944 22.1625 24.8349 22.2136 24.886C22.2647 24.9371 22.3052 24.9977 22.3328 25.0644C22.3605 25.1311 22.3747 25.2027 22.3747 25.2749ZM22.3747 23.05C22.3747 23.1587 22.3424 23.2651 22.282 23.3555C22.2216 23.4459 22.1357 23.5164 22.0352 23.5581C21.9347 23.5997 21.8241 23.6106 21.7174 23.5893C21.6108 23.5681 21.5128 23.5158 21.4358 23.4388C21.3589 23.3619 21.3066 23.2639 21.2853 23.1573C21.2641 23.0506 21.275 22.94 21.3166 22.8395C21.3583 22.739 21.4287 22.6531 21.5192 22.5927C21.6096 22.5323 21.716 22.5 21.8247 22.5C21.8969 22.5 21.9685 22.5142 22.0352 22.5419C22.1019 22.5695 22.1625 22.61 22.2136 22.6611C22.2647 22.7121 22.3052 22.7728 22.3328 22.8395C22.3605 22.9062 22.3747 22.9777 22.3747 23.05ZM22.3747 20.8499C22.3747 20.9587 22.3424 21.065 22.282 21.1554C22.2216 21.2459 22.1357 21.3163 22.0352 21.358C21.9347 21.3996 21.8241 21.4105 21.7174 21.3893C21.6108 21.3681 21.5128 21.3157 21.4358 21.2388C21.3589 21.1618 21.3066 21.0639 21.2853 20.9572C21.2641 20.8505 21.275 20.7399 21.3166 20.6394C21.3583 20.5389 21.4287 20.453 21.5192 20.3926C21.6096 20.3322 21.716 20.2999 21.8247 20.2999C21.8969 20.2999 21.9685 20.3141 22.0352 20.3418C22.1019 20.3694 22.1625 20.4099 22.2136 20.461C22.2647 20.5121 22.3052 20.5727 22.3328 20.6394C22.3605 20.7061 22.3747 20.7777 22.3747 20.8499ZM22.3747 18.6499C22.3747 18.7587 22.3424 18.865 22.282 18.9555C22.2216 19.0459 22.1357 19.1164 22.0352 19.158C21.9347 19.1996 21.8241 19.2105 21.7174 19.1893C21.6108 19.1681 21.5128 19.1157 21.4358 19.0388C21.3589 18.9619 21.3066 18.8639 21.2853 18.7572C21.2641 18.6505 21.275 18.54 21.3166 18.4395C21.3583 18.339 21.4287 18.2531 21.5192 18.1926C21.6096 18.1322 21.716 18.1 21.8247 18.1C21.8969 18.1 21.9685 18.1142 22.0352 18.1418C22.1019 18.1695 22.1625 18.21 22.2136 18.261C22.2647 18.3121 22.3052 18.3727 22.3328 18.4395C22.3605 18.5062 22.3747 18.5777 22.3747 18.6499ZM22.3747 14.2499C22.3747 14.3587 22.3424 14.465 22.282 14.5554C22.2216 14.6459 22.1357 14.7164 22.0352 14.758C21.9347 14.7996 21.8241 14.8105 21.7174 14.7893C21.6108 14.7681 21.5128 14.7157 21.4358 14.6388C21.3589 14.5618 21.3066 14.4639 21.2853 14.3572C21.2641 14.2505 21.275 14.1399 21.3166 14.0394C21.3583 13.9389 21.4287 13.853 21.5192 13.7926C21.6096 13.7322 21.716 13.6999 21.8247 13.6999C21.8969 13.6999 21.9685 13.7141 22.0352 13.7418C22.1019 13.7694 22.1625 13.8099 22.2136 13.861C22.2647 13.9121 22.3052 13.9727 22.3328 14.0394C22.3605 14.1061 22.3747 14.1777 22.3747 14.2499ZM22.3747 16.4498C22.3747 16.5586 22.3424 16.6649 22.282 16.7554C22.2216 16.8458 22.1357 16.9163 22.0352 16.9579C21.9347 16.9996 21.8241 17.0105 21.7174 16.9892C21.6108 16.968 21.5128 16.9156 21.4358 16.8387C21.3589 16.7618 21.3066 16.6638 21.2853 16.5571C21.2641 16.4504 21.275 16.3399 21.3166 16.2394C21.3583 16.1389 21.4287 16.053 21.5192 15.9926C21.6096 15.9321 21.716 15.8999 21.8247 15.8999C21.897 15.8999 21.9685 15.9141 22.0352 15.9418C22.1019 15.9694 22.1626 16.0099 22.2136 16.061C22.2647 16.1121 22.3052 16.1727 22.3329 16.2395C22.3605 16.3062 22.3747 16.3776 22.3747 16.4498ZM22.3747 12.0498C22.3747 12.1586 22.3424 12.2649 22.282 12.3553C22.2216 12.4458 22.1357 12.5163 22.0352 12.5579C21.9347 12.5995 21.8241 12.6104 21.7174 12.5892C21.6108 12.568 21.5128 12.5156 21.4358 12.4387C21.3589 12.3618 21.3066 12.2638 21.2853 12.1571C21.2641 12.0504 21.275 11.9398 21.3166 11.8393C21.3583 11.7388 21.4287 11.653 21.5192 11.5925C21.6096 11.5321 21.716 11.4998 21.8247 11.4998C21.897 11.4998 21.9685 11.5141 22.0352 11.5417C22.1019 11.5694 22.1626 11.6099 22.2136 11.661C22.2647 11.712 22.3052 11.7727 22.3329 11.8394C22.3605 11.9062 22.3747 11.9776 22.3747 12.0498ZM22.3747 9.84984C22.3747 9.95861 22.3424 10.0649 22.282 10.1554C22.2216 10.2458 22.1357 10.3163 22.0352 10.3579C21.9347 10.3996 21.8241 10.4105 21.7174 10.3892C21.6108 10.368 21.5128 10.3156 21.4358 10.2387C21.3589 10.1618 21.3066 10.0638 21.2853 9.95713C21.2641 9.85045 21.275 9.73987 21.3166 9.63938C21.3583 9.53889 21.4287 9.453 21.5192 9.39256C21.6096 9.33213 21.716 9.29988 21.8247 9.29988C21.897 9.29988 21.9685 9.31411 22.0352 9.34175C22.1019 9.3694 22.1626 9.40992 22.2136 9.461C22.2647 9.51208 22.3052 9.57272 22.3329 9.63946C22.3605 9.7062 22.3747 9.77761 22.3747 9.84984ZM20.1747 27.475C20.1747 27.5837 20.1425 27.6901 20.082 27.7805C20.0216 27.8709 19.9357 27.9414 19.8352 27.9831C19.7347 28.0247 19.6242 28.0356 19.5175 28.0144C19.4108 27.9931 19.3128 27.9408 19.2359 27.8638C19.159 27.7869 19.1066 27.6889 19.0854 27.5823C19.0642 27.4756 19.075 27.365 19.1167 27.2645C19.1583 27.164 19.2288 27.0781 19.3192 27.0177C19.4097 26.9573 19.516 26.925 19.6248 26.925C19.7706 26.925 19.9105 26.9829 20.0136 27.0861C20.1168 27.1892 20.1747 27.3291 20.1747 27.475ZM20.1747 25.2749C20.1747 25.3837 20.1425 25.49 20.082 25.5804C20.0216 25.6709 19.9357 25.7414 19.8352 25.783C19.7347 25.8246 19.6242 25.8355 19.5175 25.8143C19.4108 25.7931 19.3128 25.7407 19.2359 25.6638C19.159 25.5868 19.1066 25.4889 19.0854 25.3822C19.0642 25.2755 19.075 25.1649 19.1167 25.0644C19.1583 24.9639 19.2288 24.878 19.3192 24.8176C19.4097 24.7572 19.516 24.7249 19.6248 24.7249C19.7706 24.7249 19.9105 24.7829 20.0136 24.886C20.1168 24.9891 20.1747 25.129 20.1747 25.2749ZM20.1747 23.05C20.1747 23.1587 20.1425 23.2651 20.082 23.3555C20.0216 23.4459 19.9357 23.5164 19.8352 23.5581C19.7347 23.5997 19.6242 23.6106 19.5175 23.5893C19.4108 23.5681 19.3128 23.5158 19.2359 23.4388C19.159 23.3619 19.1066 23.2639 19.0854 23.1573C19.0642 23.0506 19.075 22.94 19.1167 22.8395C19.1583 22.739 19.2288 22.6531 19.3192 22.5927C19.4097 22.5323 19.516 22.5 19.6248 22.5C19.7706 22.5 19.9105 22.5579 20.0136 22.6611C20.1168 22.7642 20.1747 22.9041 20.1747 23.05ZM20.1747 20.8499C20.1747 20.9587 20.1425 21.065 20.082 21.1554C20.0216 21.2459 19.9357 21.3163 19.8352 21.358C19.7347 21.3996 19.6242 21.4105 19.5175 21.3893C19.4108 21.3681 19.3128 21.3157 19.2359 21.2388C19.159 21.1618 19.1066 21.0639 19.0854 20.9572C19.0642 20.8505 19.075 20.7399 19.1167 20.6394C19.1583 20.5389 19.2288 20.453 19.3192 20.3926C19.4097 20.3322 19.516 20.2999 19.6248 20.2999C19.7706 20.2999 19.9105 20.3579 20.0136 20.461C20.1168 20.5641 20.1747 20.704 20.1747 20.8499ZM20.1747 18.6499C20.1747 18.7587 20.1425 18.865 20.082 18.9555C20.0216 19.0459 19.9357 19.1164 19.8352 19.158C19.7347 19.1996 19.6242 19.2105 19.5175 19.1893C19.4108 19.1681 19.3128 19.1157 19.2359 19.0388C19.159 18.9619 19.1066 18.8639 19.0854 18.7572C19.0642 18.6505 19.075 18.54 19.1167 18.4395C19.1583 18.339 19.2288 18.2531 19.3192 18.1926C19.4097 18.1322 19.516 18.1 19.6248 18.1C19.7706 18.1 19.9105 18.1579 20.0136 18.261C20.1168 18.3642 20.1747 18.5041 20.1747 18.6499ZM20.1747 14.2499C20.1747 14.3587 20.1425 14.465 20.082 14.5554C20.0216 14.6459 19.9357 14.7164 19.8352 14.758C19.7347 14.7996 19.6242 14.8105 19.5175 14.7893C19.4108 14.7681 19.3128 14.7157 19.2359 14.6388C19.159 14.5618 19.1066 14.4639 19.0854 14.3572C19.0642 14.2505 19.075 14.1399 19.1167 14.0394C19.1583 13.9389 19.2288 13.853 19.3192 13.7926C19.4097 13.7322 19.516 13.6999 19.6248 13.6999C19.7706 13.6999 19.9105 13.7579 20.0136 13.861C20.1168 13.9641 20.1747 14.104 20.1747 14.2499ZM20.1747 16.4498C20.1747 16.5586 20.1425 16.6649 20.082 16.7554C20.0216 16.8458 19.9357 16.9163 19.8352 16.9579C19.7347 16.9996 19.6242 17.0105 19.5175 16.9892C19.4108 16.968 19.3128 16.9156 19.2359 16.8387C19.159 16.7618 19.1066 16.6638 19.0854 16.5571C19.0642 16.4504 19.075 16.3399 19.1167 16.2394C19.1583 16.1389 19.2288 16.053 19.3192 15.9926C19.4097 15.9321 19.516 15.8999 19.6248 15.8999C19.697 15.8999 19.7685 15.9141 19.8353 15.9418C19.902 15.9694 19.9626 16.0099 20.0137 16.061C20.0648 16.1121 20.1053 16.1727 20.1329 16.2395C20.1605 16.3062 20.1747 16.3776 20.1747 16.4498ZM20.1747 12.0498C20.1747 12.1586 20.1425 12.2649 20.082 12.3553C20.0216 12.4458 19.9357 12.5163 19.8352 12.5579C19.7347 12.5995 19.6242 12.6104 19.5175 12.5892C19.4108 12.568 19.3128 12.5156 19.2359 12.4387C19.159 12.3618 19.1066 12.2638 19.0854 12.1571C19.0642 12.0504 19.075 11.9398 19.1167 11.8393C19.1583 11.7388 19.2288 11.653 19.3192 11.5925C19.4097 11.5321 19.516 11.4998 19.6248 11.4998C19.697 11.4998 19.7685 11.5141 19.8353 11.5417C19.902 11.5694 19.9626 11.6099 20.0137 11.661C20.0648 11.712 20.1053 11.7727 20.1329 11.8394C20.1605 11.9062 20.1747 11.9776 20.1747 12.0498ZM20.1747 9.84984C20.1747 9.95861 20.1425 10.0649 20.082 10.1554C20.0216 10.2458 19.9357 10.3163 19.8352 10.3579C19.7347 10.3996 19.6242 10.4105 19.5175 10.3892C19.4108 10.368 19.3128 10.3156 19.2359 10.2387C19.159 10.1618 19.1066 10.0638 19.0854 9.95713C19.0642 9.85045 19.075 9.73987 19.1167 9.63938C19.1583 9.53889 19.2288 9.453 19.3192 9.39256C19.4097 9.33213 19.516 9.29988 19.6248 9.29988C19.697 9.29988 19.7685 9.31411 19.8353 9.34175C19.902 9.3694 19.9626 9.40992 20.0137 9.461C20.0648 9.51208 20.1053 9.57272 20.1329 9.63946C20.1605 9.7062 20.1747 9.77761 20.1747 9.84984ZM17.9746 25.2749C17.9746 25.3837 17.9424 25.49 17.882 25.5804C17.8215 25.6709 17.7356 25.7414 17.6351 25.783C17.5347 25.8246 17.4241 25.8355 17.3174 25.8143C17.2107 25.7931 17.1127 25.7407 17.0358 25.6638C16.9589 25.5868 16.9065 25.4889 16.8853 25.3822C16.8641 25.2755 16.875 25.1649 16.9166 25.0644C16.9582 24.9639 17.0287 24.878 17.1191 24.8176C17.2096 24.7572 17.3159 24.7249 17.4247 24.7249C17.5705 24.7249 17.7104 24.7829 17.8136 24.886C17.9167 24.9891 17.9746 25.129 17.9746 25.2749ZM17.9746 23.05C17.9746 23.1587 17.9424 23.2651 17.882 23.3555C17.8215 23.4459 17.7356 23.5164 17.6351 23.5581C17.5347 23.5997 17.4241 23.6106 17.3174 23.5893C17.2107 23.5681 17.1127 23.5158 17.0358 23.4388C16.9589 23.3619 16.9065 23.2639 16.8853 23.1573C16.8641 23.0506 16.875 22.94 16.9166 22.8395C16.9582 22.739 17.0287 22.6531 17.1191 22.5927C17.2096 22.5323 17.3159 22.5 17.4247 22.5C17.5705 22.5 17.7104 22.5579 17.8136 22.6611C17.9167 22.7642 17.9746 22.9041 17.9746 23.05ZM17.9746 20.8499C17.9746 20.9587 17.9424 21.065 17.882 21.1554C17.8215 21.2459 17.7356 21.3163 17.6351 21.358C17.5347 21.3996 17.4241 21.4105 17.3174 21.3893C17.2107 21.3681 17.1127 21.3157 17.0358 21.2388C16.9589 21.1618 16.9065 21.0639 16.8853 20.9572C16.8641 20.8505 16.875 20.7399 16.9166 20.6394C16.9582 20.5389 17.0287 20.453 17.1191 20.3926C17.2096 20.3322 17.3159 20.2999 17.4247 20.2999C17.5705 20.2999 17.7104 20.3579 17.8136 20.461C17.9167 20.5641 17.9746 20.704 17.9746 20.8499ZM17.9746 18.6499C17.9746 18.7587 17.9424 18.865 17.882 18.9555C17.8215 19.0459 17.7356 19.1164 17.6351 19.158C17.5347 19.1996 17.4241 19.2105 17.3174 19.1893C17.2107 19.1681 17.1127 19.1157 17.0358 19.0388C16.9589 18.9619 16.9065 18.8639 16.8853 18.7572C16.8641 18.6505 16.875 18.54 16.9166 18.4395C16.9582 18.339 17.0287 18.2531 17.1191 18.1926C17.2096 18.1322 17.3159 18.1 17.4247 18.1C17.5705 18.1 17.7104 18.1579 17.8136 18.261C17.9167 18.3642 17.9746 18.5041 17.9746 18.6499ZM17.9746 14.2499C17.9746 14.3587 17.9424 14.465 17.882 14.5554C17.8215 14.6459 17.7356 14.7164 17.6351 14.758C17.5347 14.7996 17.4241 14.8105 17.3174 14.7893C17.2107 14.7681 17.1127 14.7157 17.0358 14.6388C16.9589 14.5618 16.9065 14.4639 16.8853 14.3572C16.8641 14.2505 16.875 14.1399 16.9166 14.0394C16.9582 13.9389 17.0287 13.853 17.1191 13.7926C17.2096 13.7322 17.3159 13.6999 17.4247 13.6999C17.5705 13.6999 17.7104 13.7579 17.8136 13.861C17.9167 13.9641 17.9746 14.104 17.9746 14.2499ZM17.9746 16.4498C17.9746 16.5586 17.9424 16.6649 17.882 16.7554C17.8215 16.8458 17.7356 16.9163 17.6351 16.9579C17.5347 16.9996 17.4241 17.0105 17.3174 16.9892C17.2107 16.968 17.1127 16.9156 17.0358 16.8387C16.9589 16.7618 16.9065 16.6638 16.8853 16.5571C16.8641 16.4504 16.875 16.3399 16.9166 16.2394C16.9582 16.1389 17.0287 16.053 17.1191 15.9926C17.2096 15.9321 17.3159 15.8999 17.4247 15.8999C17.4969 15.8999 17.5684 15.9141 17.6352 15.9418C17.7019 15.9694 17.7625 16.0099 17.8136 16.061C17.8647 16.1121 17.9052 16.1727 17.9328 16.2395C17.9605 16.3062 17.9747 16.3776 17.9746 16.4498ZM17.9746 12.0498C17.9746 12.1586 17.9424 12.2649 17.882 12.3553C17.8215 12.4458 17.7356 12.5163 17.6351 12.5579C17.5347 12.5995 17.4241 12.6104 17.3174 12.5892C17.2107 12.568 17.1127 12.5156 17.0358 12.4387C16.9589 12.3618 16.9065 12.2638 16.8853 12.1571C16.8641 12.0504 16.875 11.9398 16.9166 11.8393C16.9582 11.7388 17.0287 11.653 17.1191 11.5925C17.2096 11.5321 17.3159 11.4998 17.4247 11.4998C17.4969 11.4998 17.5684 11.5141 17.6352 11.5417C17.7019 11.5694 17.7625 11.6099 17.8136 11.661C17.8647 11.712 17.9052 11.7727 17.9328 11.8394C17.9605 11.9062 17.9747 11.9776 17.9746 12.0498ZM17.9746 9.84984C17.9746 9.95861 17.9424 10.0649 17.882 10.1554C17.8215 10.2458 17.7356 10.3163 17.6351 10.3579C17.5347 10.3996 17.4241 10.4105 17.3174 10.3892C17.2107 10.368 17.1127 10.3156 17.0358 10.2387C16.9589 10.1618 16.9065 10.0638 16.8853 9.95713C16.8641 9.85045 16.875 9.73987 16.9166 9.63938C16.9582 9.53889 17.0287 9.453 17.1191 9.39256C17.2096 9.33213 17.3159 9.29988 17.4247 9.29988C17.4969 9.29988 17.5684 9.31411 17.6352 9.34175C17.7019 9.3694 17.7625 9.40992 17.8136 9.461C17.8647 9.51208 17.9052 9.57272 17.9328 9.63946C17.9605 9.7062 17.9747 9.77761 17.9746 9.84984Z" fill="black" fill-opacity="0.3"/>
</svg>
