<svg width="14" height="14" viewBox="0 0 14 14" fill="none" xmlns="http://www.w3.org/2000/svg">
<path fill-rule="evenodd" clip-rule="evenodd" d="M0.21934 0.238708C0.359965 0.0982575 0.550589 0.0193681 0.74934 0.0193681C0.948091 0.0193681 1.13871 0.0982575 1.27934 0.238708L6.74934 5.70871L12.2193 0.238708C12.288 0.165021 12.3708 0.105919 12.4628 0.064927C12.5548 0.023935 12.6541 0.00189351 12.7548 0.000116722C12.8555 -0.00166006 12.9555 0.0168643 13.0489 0.0545854C13.1423 0.0923064 13.2272 0.148451 13.2984 0.21967C13.3696 0.290888 13.4257 0.375722 13.4635 0.46911C13.5012 0.562499 13.5197 0.662528 13.5179 0.763231C13.5162 0.863934 13.4941 0.963247 13.4531 1.05525C13.4121 1.14725 13.353 1.23005 13.2793 1.29871L7.80934 6.76871L13.2793 12.2387C13.353 12.3074 13.4121 12.3902 13.4531 12.4822C13.4941 12.5742 13.5162 12.6735 13.5179 12.7742C13.5197 12.8749 13.5012 12.9749 13.4635 13.0683C13.4257 13.1617 13.3696 13.2465 13.2984 13.3177C13.2272 13.389 13.1423 13.4451 13.0489 13.4828C12.9555 13.5206 12.8555 13.5391 12.7548 13.5373C12.6541 13.5355 12.5548 13.5135 12.4628 13.4725C12.3708 13.4315 12.288 13.3724 12.2193 13.2987L6.74934 7.82871L1.27934 13.2987C1.13717 13.4312 0.949119 13.5033 0.754817 13.4999C0.560516 13.4965 0.375131 13.4177 0.237718 13.2803C0.100305 13.1429 0.0215933 12.9575 0.0181651 12.7632C0.0147369 12.5689 0.0868598 12.3809 0.21934 12.2387L5.68934 6.76871L0.21934 1.29871C0.0788894 1.15808 0 0.967459 0 0.768708C0 0.569957 0.0788894 0.379333 0.21934 0.238708Z" fill="white"/>
</svg>
